<svg version="1.1" id="Layer_1" xmlns="http://www.w3.org/2000/svg" xmlns:xlink="http://www.w3.org/1999/xlink" x="0px" y="0px"
	 width="100%" viewBox="0 0 790 805" enable-background="new 0 0 790 805" xml:space="preserve">
<path fill="#1F3A5C" opacity="1.000000" stroke="none" 
	d="
M743.000000,1.000005 
	C744.388916,1.000000 745.777771,1.000000 747.583496,1.355288 
	C749.989807,2.741001 751.979187,3.771427 754.066895,5.151757 
	C758.799316,7.661179 763.433594,9.820698 768.035706,11.987109 
	C768.003601,11.994002 768.008728,11.928534 768.011230,12.284465 
	C769.364685,13.415428 770.715759,14.190460 772.036682,14.978982 
	C772.006592,14.992471 772.019714,14.927827 771.990601,15.249851 
	C772.331726,15.709257 772.701965,15.846640 773.039307,15.988128 
	C773.006470,15.992233 773.021118,15.927692 772.975769,16.285004 
	C773.695435,17.104534 774.460388,17.566753 775.420166,18.067047 
	C775.870178,18.256079 775.988892,18.479568 775.963989,19.138973 
	C776.661926,19.994715 777.366699,20.487076 778.039551,20.986763 
	C778.007507,20.994091 778.018372,20.929359 777.979370,21.261600 
	C778.317444,21.720219 778.694519,21.846594 779.039185,21.983364 
	C779.006775,21.993761 779.039246,21.933929 778.915955,22.292126 
	C781.544250,27.448723 784.295837,32.247124 787.008423,37.035835 
	C786.969360,37.026142 786.981506,36.946629 787.020752,37.343979 
	C787.916565,40.135311 788.773071,42.529293 789.969482,44.991772 
	C790.539551,45.040176 790.769775,45.020088 791.000000,45.000000 
	C791.000000,72.020897 791.000000,99.041786 790.758911,126.523087 
	C790.517883,126.983498 790.035583,126.970688 790.026733,126.505035 
	C790.017883,102.771324 790.017883,79.503258 790.017883,56.235195 
	C789.152161,57.011005 789.017456,57.806866 789.017517,58.602718 
	C789.024658,166.409470 789.041687,274.216217 789.043213,382.489166 
	C789.024109,387.786713 789.014893,392.618042 789.017395,397.449402 
	C789.020813,404.007324 789.024658,404.014099 782.544189,404.013519 
	C732.729980,404.009033 682.915833,403.987915 633.101685,404.044769 
	C631.066711,404.047089 629.032471,404.775085 626.767578,405.296326 
	C626.360535,405.422302 626.183899,405.416992 625.820801,405.108215 
	C615.032532,392.456635 604.510315,380.039185 593.811279,367.775970 
	C575.462524,346.744690 557.012695,325.801453 538.586060,304.838196 
	C530.360840,295.480743 522.128967,286.128387 513.813416,276.851471 
	C511.337769,274.089539 508.569366,272.240448 505.634094,276.962646 
	C501.096497,281.962158 496.787628,286.774597 492.677368,291.751099 
	C481.059570,305.817444 469.678192,320.082184 457.894562,334.007202 
	C451.184814,341.936279 450.912506,341.705872 443.930176,334.721069 
	C443.709534,334.303314 443.503204,334.153809 443.145142,333.756500 
	C442.736084,333.092834 442.413269,332.767365 442.111633,332.178284 
	C441.950775,331.619568 441.768707,331.324432 441.581238,330.742676 
	C441.061890,329.948547 440.547913,329.441132 439.967773,328.688049 
	C439.790436,328.314301 439.679291,328.186218 439.569885,327.721802 
	C437.107574,323.866974 434.643494,320.348511 432.115051,316.482910 
	C429.422150,312.377075 426.793610,308.618408 424.090973,304.527557 
	C423.473206,303.471466 422.929504,302.747589 422.398682,301.701965 
	C417.333191,293.812897 412.254852,286.245605 407.136658,278.493347 
	C407.096741,278.308380 406.835724,278.031616 406.817261,277.679749 
	C404.612427,274.146057 402.426086,270.964294 400.156799,267.441345 
	C382.661987,239.998978 365.232086,212.909348 347.847900,185.790390 
	C341.753845,176.283813 335.801208,166.686600 329.720215,157.171570 
	C328.024750,154.518631 326.103851,151.951920 323.700317,157.015045 
	C323.138275,157.747223 322.842407,158.379990 322.305298,159.240005 
	C321.681030,160.249695 321.298035,161.032120 320.650208,161.934464 
	C320.071930,162.706711 319.758514,163.359070 319.210144,164.263306 
	C317.950470,166.268127 316.925781,168.021072 315.643372,169.907227 
	C315.071655,170.696365 314.757660,171.352295 314.202515,172.255707 
	C312.937256,174.260117 311.913177,176.017029 310.626221,177.903702 
	C310.020691,178.689499 309.678040,179.345520 309.185120,180.181885 
	C309.034912,180.362213 308.904541,180.813156 308.639771,180.934784 
	C308.039398,181.705963 307.703796,182.355545 307.210754,183.179077 
	C307.053314,183.353058 306.904358,183.798050 306.630432,183.921768 
	C306.022156,184.722260 305.687836,185.399017 305.253204,186.139465 
	C305.152924,186.203125 305.117371,186.438004 304.824402,186.539795 
	C303.515900,188.427094 302.500305,190.212616 301.309631,192.206268 
	C301.074097,192.585358 301.013672,192.756317 300.686768,193.024902 
	C300.106079,193.748718 299.791931,194.374924 299.303162,195.218277 
	C299.072784,195.612625 299.017059,195.789841 298.675659,196.093689 
	C297.723572,197.477386 297.057098,198.734436 296.228088,200.190125 
	C296.017151,200.552872 295.968719,200.716995 295.662231,200.991669 
	C295.126953,201.732971 294.849670,202.363739 294.374512,203.206421 
	C294.049377,203.779114 293.922119,204.139893 293.508301,204.686188 
	C291.954987,206.919510 290.688232,208.967300 289.255066,211.207977 
	C289.039368,211.563416 288.990112,211.725952 288.644135,212.032349 
	C286.344421,215.450607 284.341431,218.724991 282.188354,222.182526 
	C282.038330,222.365692 281.906067,222.820404 281.626648,222.951752 
	C281.037964,223.797409 280.728729,224.511734 280.284668,225.353012 
	C280.149841,225.479980 279.983490,225.810867 279.668884,225.907318 
	C279.043915,226.772171 278.733582,227.540573 278.294189,228.458282 
	C278.165131,228.607590 278.057251,228.987274 277.772156,229.057861 
	C277.174072,229.777481 276.861053,230.426498 276.296692,231.287262 
	C275.661163,232.270767 275.277008,233.042557 274.624054,233.935181 
	C274.004242,234.709564 273.653259,235.363113 273.160156,236.202576 
	C273.018066,236.388504 272.911621,236.844223 272.648621,236.959839 
	C272.075317,237.718109 271.765045,238.360779 271.282715,239.204163 
	C271.054352,239.571915 270.998138,239.738968 270.650146,240.032104 
	C269.672638,241.436462 268.986938,242.714752 268.153015,244.162643 
	C268.004822,244.332260 267.875427,244.763733 267.609680,244.889130 
	C267.009308,245.674515 266.674713,246.334488 266.184540,247.169678 
	C266.028992,247.344879 265.882538,247.790009 265.615814,247.912674 
	C265.035858,248.705139 264.722595,249.374939 264.245056,250.223145 
	C264.080811,250.401550 263.918854,250.858688 263.653931,250.972900 
	C263.067841,251.733551 262.746704,252.380005 262.257538,253.222504 
	C262.038300,253.582886 261.987091,253.747223 261.647339,254.040558 
	C260.877441,255.085953 260.396118,256.002380 259.660675,257.034241 
	C259.125092,257.782654 258.843658,258.415588 258.360809,259.253601 
	C258.037872,259.817749 257.916351,260.176819 257.502686,260.708496 
	C256.257141,262.589386 255.303787,264.297729 254.188446,266.210266 
	C253.973251,266.579956 253.920029,266.745361 253.577606,267.042725 
	C252.347198,268.792572 251.406006,270.410522 250.294556,272.237610 
	C250.068542,272.617645 250.012787,272.788574 249.655411,273.086731 
	C240.714722,286.431854 231.996735,299.599152 223.474182,312.891754 
	C219.908768,318.452698 216.758102,324.279602 213.251114,330.187531 
	C213.025818,330.554810 212.968262,330.720093 212.642700,330.985138 
	C212.066223,331.722046 211.757751,332.359192 211.281250,333.220947 
	C211.058868,333.624542 211.004517,333.803497 210.650955,334.108551 
	C207.242889,339.147766 204.134048,344.060822 200.885071,349.250366 
	C200.092407,350.537262 199.439880,351.547699 198.499878,352.743927 
	C194.272003,359.282410 190.331619,365.635071 186.231644,372.192413 
	C186.016830,372.561066 185.961594,372.725037 185.620209,373.021240 
	C184.993561,374.092590 184.653091,375.031708 184.211456,376.022156 
	C184.110306,376.073547 184.053909,376.293335 183.763458,376.416870 
	C178.574921,384.342010 173.676834,392.143616 168.511841,400.147827 
	C167.461639,401.977814 166.678345,403.605133 165.634521,405.259827 
	C165.218811,405.206970 165.063644,405.126831 164.618347,404.757324 
	C162.353775,404.314362 160.379379,404.027557 158.404861,404.026611 
	C108.586014,404.002197 58.766922,403.941559 8.948651,404.113068 
	C4.096880,404.129761 2.746531,402.716003 2.846416,397.947540 
	C3.139459,383.957794 3.010386,369.957153 2.857269,355.962860 
	C2.839097,354.302002 1.647610,352.653961 1.000000,351.000000 
	C1.000000,348.299988 1.000000,345.599976 1.339361,342.398499 
	C3.442064,340.251495 3.597469,338.886017 1.000000,338.000000 
	C1.000000,332.645081 1.000000,327.290131 1.352633,321.405487 
	C3.568519,318.946991 3.870324,317.244080 1.000000,316.000000 
	C1.000000,314.933319 1.000000,313.866669 1.324713,312.360840 
	C1.432951,310.947784 1.216476,309.973877 1.000000,309.000000 
	C1.000000,306.958344 1.000000,304.916656 1.338717,302.382996 
	C3.451232,300.245819 3.597868,298.884003 1.000000,298.000000 
	C1.000000,218.312439 1.000000,138.624878 1.163156,58.384750 
	C1.217541,57.554790 1.108770,57.277397 1.000000,57.000000 
	C1.000000,52.975456 1.000000,48.950912 1.373785,44.433655 
	C2.901062,40.440445 3.476354,36.598839 5.306118,33.497314 
	C14.181929,18.452433 26.284439,7.279911 43.762402,2.930607 
	C44.615574,2.718299 45.258934,1.662838 46.000000,1.000000 
	C46.750000,1.000000 47.500000,1.000000 48.805084,1.394846 
	C51.995560,1.856273 54.630939,1.980689 57.266346,1.981209 
	C284.702484,2.026049 512.138611,2.062931 739.574768,2.051991 
	C740.716492,2.051937 741.858276,1.365765 743.000000,1.000005 
M497.721802,189.832779 
	C501.360962,194.360138 504.501495,199.427673 508.722717,203.324539 
	C531.036926,223.924240 560.836304,228.221878 588.475891,215.372528 
	C612.435120,204.234116 631.491516,174.169449 626.969788,143.118149 
	C622.851379,114.836578 607.528503,95.263374 580.789490,85.602936 
	C553.968262,75.912827 529.267151,81.280365 508.641815,100.744095 
	C485.506256,122.576729 477.629639,158.541794 497.721802,189.832779 
z"/>
<path fill="#FBFDFD" opacity="1.000000" stroke="none" 
	d="
M626.007263,405.411682 
	C626.183899,405.416992 626.360535,405.422302 627.219482,405.417847 
	C663.157471,405.403046 698.413391,405.428925 733.669128,405.380463 
	C752.451721,405.354645 771.234192,405.200256 790.276367,405.209076 
	C790.690674,405.209503 790.845337,405.104767 791.000000,405.000000 
	C791.000000,422.020905 791.000000,439.041779 790.542847,456.452728 
	C789.586060,456.830536 789.086365,456.807587 788.586731,456.807587 
	C553.868347,456.801178 319.149902,456.789185 84.431496,456.801453 
	C57.620380,456.802856 30.809273,456.940491 3.629890,456.916992 
	C2.507747,456.879333 1.753874,456.939667 1.000001,457.000000 
	C1.000000,439.979095 1.000000,422.958221 1.446369,405.622650 
	C51.598480,405.341888 101.304222,405.385590 151.009964,405.393433 
	C155.642792,405.394165 160.275650,405.167664 164.908493,405.046661 
	C165.063644,405.126831 165.218811,405.206970 165.906662,405.528442 
	C168.733353,406.062317 171.027328,406.610565 173.321381,406.610840 
	C319.772858,406.627045 466.224365,406.608948 612.675842,406.525696 
	C617.119812,406.523163 621.563477,405.799255 626.007263,405.411682 
z"/>
<path fill="#122048" opacity="1.000000" stroke="none" 
	d="
M3.998158,457.014984 
	C30.809273,456.940491 57.620380,456.802856 84.431496,456.801453 
	C319.149902,456.789185 553.868347,456.801178 788.586731,456.807587 
	C789.086365,456.807587 789.586060,456.830536 790.542847,456.921387 
	C791.000000,560.358215 791.000000,663.716492 790.645203,767.573425 
	C789.597839,768.738220 788.697144,769.287415 788.246704,770.089417 
	C785.502258,774.976379 783.538757,780.482483 780.031555,784.719971 
	C774.138184,791.840637 768.174622,799.396912 757.993774,800.576172 
	C757.994385,799.831604 757.993225,799.406128 758.164368,798.682373 
	C766.841797,794.795410 772.896118,788.086792 778.211365,781.098877 
	C785.087585,772.058777 787.999451,761.274963 788.000183,749.836975 
	C788.006348,655.363098 788.003113,560.889282 788.002014,466.415436 
	C788.001892,459.001129 787.999146,458.998291 780.363770,458.998260 
	C594.748291,458.997589 409.132782,458.989197 223.517288,459.001404 
	C150.038055,459.006256 76.558807,459.057098 3.166757,458.816895 
	C3.502014,458.036194 3.750086,457.525604 3.998158,457.014984 
z"/>
<path fill="#11254A" opacity="1.000000" stroke="none" 
	d="
M757.992065,798.980591 
	C757.993225,799.406128 757.994385,799.831604 757.697998,800.753662 
	C755.600342,802.833496 753.800171,804.416748 752.000000,806.000000 
	C514.644043,806.000000 277.288055,806.000000 39.422890,805.648193 
	C38.266594,804.868530 37.618877,804.441467 36.972473,804.012512 
	C30.351484,799.617676 22.626797,796.237427 17.404099,790.556946 
	C11.574053,784.215759 8.012015,775.788208 3.472749,768.262756 
	C2.624415,766.856384 1.823013,765.421692 0.999987,764.000000 
	C1.000000,758.976685 1.000000,753.953369 1.334900,748.467041 
	C2.116342,748.003418 2.562883,748.002869 3.272290,748.302795 
	C4.947055,758.579773 5.718818,768.575134 11.617253,777.476624 
	C22.557737,793.987244 37.269012,803.914856 57.311821,803.925110 
	C281.693573,804.040405 506.075409,804.015686 730.457153,803.915833 
	C736.873596,803.912964 743.321777,802.874451 749.690857,801.898682 
	C752.540039,801.462219 755.229858,799.985352 757.992065,798.980591 
z"/>
<path fill="#7B84A7" opacity="1.000000" stroke="none" 
	d="
M742.536133,1.000005 
	C741.858276,1.365765 740.716492,2.051937 739.574768,2.051991 
	C512.138611,2.062931 284.702484,2.026049 57.266346,1.981209 
	C54.630939,1.980689 51.995560,1.856273 49.180084,1.394846 
	C280.024078,1.000000 511.048187,1.000000 742.536133,1.000005 
z"/>
<path fill="#000000" opacity="1.000000" stroke="none" 
	d="
M45.531342,1.000000 
	C45.258934,1.662838 44.615574,2.718299 43.762402,2.930607 
	C26.284439,7.279911 14.181929,18.452433 5.306118,33.497314 
	C3.476354,36.598839 2.901062,40.440445 1.373785,43.970467 
	C1.000000,29.738304 1.000000,15.476606 1.000000,1.000000 
	C15.686863,1.000000 30.374773,1.000000 45.531342,1.000000 
z"/>
<path fill="#000000" opacity="1.000000" stroke="none" 
	d="
M753.968628,4.801851 
	C751.979187,3.771427 749.989807,2.741001 748.000183,1.355288 
	C762.260864,1.000000 776.521729,1.000000 791.000000,1.000000 
	C791.000000,15.353497 791.000000,29.708090 791.000000,44.531342 
	C790.769775,45.020088 790.539551,45.040176 790.016724,44.622131 
	C788.809937,41.771534 787.895752,39.359074 786.981567,36.946621 
	C786.981506,36.946629 786.969360,37.026142 786.872925,36.652691 
	C786.266968,30.381239 783.508484,25.696241 779.039246,21.933929 
	C779.039246,21.933929 779.006775,21.993761 778.984253,21.710239 
	C778.647278,21.260937 778.332825,21.095158 778.018372,20.929367 
	C778.018372,20.929359 778.007507,20.994091 778.026855,20.610744 
	C777.354431,19.743460 776.662659,19.259523 775.970947,18.775591 
	C775.988892,18.479568 775.870178,18.256079 775.344849,17.691730 
	C774.390259,16.828123 773.705688,16.377907 773.021118,15.927692 
	C773.021118,15.927692 773.006470,15.992233 772.982544,15.715284 
	C772.645630,15.268168 772.332642,15.098001 772.019714,14.927831 
	C772.019714,14.927827 772.006592,14.992471 771.936157,14.650369 
	C770.580017,13.515023 769.294373,12.721780 768.008728,11.928535 
	C768.008728,11.928534 768.003601,11.994002 767.927368,11.649241 
	C763.777222,7.955165 759.573669,4.882436 753.968628,4.801851 
z"/>
<path fill="#000000" opacity="1.000000" stroke="none" 
	d="
M0.999987,764.468628 
	C1.823013,765.421692 2.624415,766.856384 3.472749,768.262756 
	C8.012015,775.788208 11.574053,784.215759 17.404099,790.556946 
	C22.626797,796.237427 30.351484,799.617676 36.972473,804.012512 
	C37.618877,804.441467 38.266594,804.868530 38.956848,805.648193 
	C26.403011,806.000000 13.806022,806.000000 1.000000,806.000000 
	C1.000000,792.313171 1.000000,778.625244 0.999987,764.468628 
z"/>
<path fill="#000000" opacity="1.000000" stroke="none" 
	d="
M752.468628,806.000000 
	C753.800171,804.416748 755.600342,802.833496 757.696167,801.072754 
	C768.174622,799.396912 774.138184,791.840637 780.031555,784.719971 
	C783.538757,780.482483 785.502258,774.976379 788.246704,770.089417 
	C788.697144,769.287415 789.597839,768.738220 790.645203,768.036072 
	C791.000000,780.594238 791.000000,793.188538 791.000000,806.000000 
	C778.313293,806.000000 765.625305,806.000000 752.468628,806.000000 
z"/>
<path fill="#08143F" opacity="1.000000" stroke="none" 
	d="
M3.009424,748.002319 
	C2.562883,748.002869 2.116342,748.003418 1.334900,748.001953 
	C1.000000,651.312439 1.000000,554.624878 1.000001,457.468658 
	C1.753874,456.939667 2.507747,456.879333 3.629889,456.916992 
	C3.750086,457.525604 3.502014,458.036194 3.150302,459.275696 
	C3.034248,556.003784 3.021836,652.003052 3.009424,748.002319 
z"/>
<path fill="#1F2848" opacity="1.000000" stroke="none" 
	d="
M791.000000,404.531342 
	C790.845337,405.104767 790.690674,405.209503 790.274475,404.733643 
	C790.006165,396.768646 789.999451,389.384338 789.997131,381.531372 
	C790.012878,296.365387 790.024231,211.668030 790.035583,126.970688 
	C790.035583,126.970688 790.517883,126.983498 790.758911,126.991745 
	C791.000000,219.354233 791.000000,311.708466 791.000000,404.531342 
z"/>
<path fill="#0A1135" opacity="1.000000" stroke="none" 
	d="
M164.618347,404.757324 
	C160.275650,405.167664 155.642792,405.394165 151.009964,405.393433 
	C101.304222,405.385590 51.598480,405.341888 1.446369,405.153992 
	C1.000000,387.312439 1.000000,369.624878 1.000000,351.468658 
	C1.647610,352.653961 2.839097,354.302002 2.857269,355.962860 
	C3.010386,369.957153 3.139459,383.957794 2.846416,397.947540 
	C2.746531,402.716003 4.096880,404.129761 8.948651,404.113068 
	C58.766922,403.941559 108.586014,404.002197 158.404861,404.026611 
	C160.379379,404.027557 162.353775,404.314362 164.618347,404.757324 
z"/>
<path fill="#0A1135" opacity="1.000000" stroke="none" 
	d="
M1.000000,316.416656 
	C3.870324,317.244080 3.568519,318.946991 1.352633,320.937866 
	C1.000000,319.611115 1.000000,318.222198 1.000000,316.416656 
z"/>
<path fill="#0A1135" opacity="1.000000" stroke="none" 
	d="
M1.000000,298.399994 
	C3.597868,298.884003 3.451232,300.245819 1.338717,301.945496 
	C1.000000,300.933319 1.000000,299.866669 1.000000,298.399994 
z"/>
<path fill="#0A1135" opacity="1.000000" stroke="none" 
	d="
M1.000000,338.399994 
	C3.597469,338.886017 3.442064,340.251495 1.339361,341.948486 
	C1.000000,340.933319 1.000000,339.866669 1.000000,338.399994 
z"/>
<path fill="#0A1135" opacity="1.000000" stroke="none" 
	d="
M1.000000,309.375000 
	C1.216476,309.973877 1.432951,310.947784 1.324713,311.960815 
	C1.000000,311.250000 1.000000,310.500000 1.000000,309.375000 
z"/>
<path fill="#0A1135" opacity="1.000000" stroke="none" 
	d="
M1.000000,57.250000 
	C1.108770,57.277397 1.217541,57.554790 1.163156,57.916092 
	C1.000000,58.000000 1.000000,57.500000 1.000000,57.250000 
z"/>
<path fill="#00D9FF" opacity="1.000000" stroke="none" 
	d="
M278.057251,228.987274 
	C278.057251,228.987274 278.165131,228.607590 278.550232,228.543304 
	C279.284698,227.589645 279.634094,226.700256 279.983521,225.810883 
	C279.983490,225.810867 280.149841,225.479980 280.373901,225.393616 
	C280.597931,225.307251 280.784973,225.369705 280.881317,225.636688 
	C282.769867,224.649429 285.055054,223.752899 286.269501,222.079361 
	C291.690247,214.609329 296.826080,206.931595 302.016968,199.296326 
	C303.414703,197.240387 304.642731,195.069183 305.950897,192.952255 
	C311.613617,183.788879 317.252563,174.610687 322.953400,165.471100 
	C325.002869,162.185364 327.167633,161.975449 329.331360,165.464447 
	C331.306091,168.648682 333.306702,171.819290 335.385590,174.936096 
	C344.123718,188.037109 353.351105,200.842102 361.448578,214.326447 
	C365.094391,220.397629 368.033569,226.829483 373.078583,232.283188 
	C373.746002,233.378922 374.396576,234.153320 375.044983,234.949554 
	C375.042786,234.971405 375.084717,234.958389 375.094299,235.280396 
	C375.752747,236.378525 376.401642,237.154648 377.208618,238.229553 
	C378.936462,241.004547 380.506226,243.480759 382.084961,246.279633 
	C382.739929,247.388229 383.385986,248.174149 384.188599,249.260681 
	C387.918396,255.026505 391.491638,260.491730 395.094727,266.273560 
	C395.735565,267.069275 396.346588,267.548370 396.977356,268.019531 
	C396.997131,268.011627 396.969147,268.044769 396.973938,268.423340 
	C398.992096,271.858673 401.005493,274.915466 403.013550,277.986145 
	C403.008209,278.000031 403.033020,277.980194 403.059998,278.324768 
	C404.376434,280.127869 405.665924,281.586365 407.013306,283.364624 
	C408.047211,284.782562 409.023285,285.880768 410.031769,287.327179 
	C411.385712,289.130188 412.707214,290.584991 414.240479,292.273926 
	C414.616913,293.325500 414.781647,294.142975 414.735382,295.175842 
	C415.694977,297.250671 416.865570,299.110077 418.168701,301.183350 
	C418.573151,301.588470 418.845062,301.779724 419.124054,302.289093 
	C419.753723,303.404419 420.376251,304.201599 421.036407,305.326630 
	C422.058777,306.767365 423.043579,307.880219 424.096680,309.317322 
	C425.120728,311.086853 426.076447,312.532135 427.065430,314.312744 
	C428.037445,315.468292 428.976196,316.288544 429.930054,317.420746 
	C429.958496,318.149628 429.971832,318.566528 429.994629,319.337524 
	C431.360138,321.444061 432.716217,323.196533 434.288391,325.130737 
	C434.998199,325.871643 435.491943,326.430786 436.026337,327.329773 
	C437.045074,329.116364 438.023163,330.563080 439.081482,332.347382 
	C440.779724,334.152405 442.397675,335.619781 444.208984,337.272339 
	C444.580811,337.956696 444.759308,338.455872 444.939819,339.323547 
	C445.316223,340.779114 445.690643,341.866180 446.211975,343.260162 
	C448.463135,345.317383 450.533630,347.626282 452.982483,343.976562 
	C453.000305,343.987000 452.967102,343.954926 453.312134,343.923889 
	C455.414001,341.910553 457.170837,339.928284 459.100494,337.666718 
	C460.839233,335.582214 462.405151,333.777008 464.287628,331.926636 
	C465.060669,331.245697 465.517181,330.609985 466.182861,329.856140 
	C466.650452,329.536102 466.844055,329.284332 467.283020,328.849060 
	C469.043335,326.797607 470.493469,324.879791 471.961609,322.981689 
	C471.979645,323.001373 471.960266,322.954102 472.266785,322.815796 
	C475.716370,318.449219 478.859406,314.220947 482.143188,309.696228 
	C483.208252,308.208191 484.132538,307.016602 485.364624,305.773193 
	C486.036774,304.836548 486.401154,303.951630 486.844757,302.997162 
	C486.924011,302.927582 487.059387,302.765839 487.385742,302.783081 
	C488.394409,301.914520 489.076782,301.028717 489.833038,299.832336 
	C489.941376,299.311768 489.975861,299.101746 490.341675,298.871582 
	C491.365112,297.953857 492.057159,297.056335 492.910461,295.916260 
	C493.364868,295.423096 493.658051,295.172485 494.269653,294.888763 
	C495.052948,294.230286 495.517914,293.604950 496.275940,292.817566 
	C500.041138,288.434082 503.513245,284.212616 507.408020,279.993164 
	C509.242340,279.969604 510.654022,279.944061 512.223755,280.212799 
	C516.275024,284.652405 520.168274,288.797729 524.077759,293.277344 
	C525.092407,294.715149 526.090698,295.818726 527.243652,297.205750 
	C528.949097,298.976654 530.499817,300.464142 532.071411,302.290283 
	C533.421509,304.063507 534.750732,305.498047 536.206177,307.136261 
	C536.532410,307.596802 536.778931,307.796356 537.079895,308.264893 
	C537.752075,309.361115 538.416199,310.131042 539.076416,310.932800 
	C539.072449,310.964600 539.121704,310.923553 539.126465,311.269287 
	C540.110413,312.384949 541.089600,313.154907 542.226196,314.220337 
	C545.941467,318.326752 549.499268,322.137665 553.071960,326.274414 
	C553.758301,327.368530 554.429749,328.136810 555.256836,329.189209 
	C557.000305,331.267365 558.588196,333.061432 560.159790,335.210205 
	C562.793640,338.348450 565.443787,341.131989 568.246094,344.193237 
	C569.613586,345.632874 570.828857,346.794830 572.067993,348.294556 
	C573.420532,350.066742 574.749146,351.501160 576.204834,353.138306 
	C576.535706,353.594208 576.784302,353.790771 577.105957,354.254517 
	C577.777344,355.028961 578.420410,355.479675 579.197266,356.188049 
	C579.904236,356.947571 580.477478,357.449402 581.069580,358.284912 
	C582.092529,359.714661 583.096680,360.810760 584.253174,362.185577 
	C585.627625,363.621368 586.849609,364.778473 588.084839,366.270782 
	C589.094788,367.711884 590.091431,368.817719 591.219421,370.181702 
	C591.919861,370.941681 592.489014,371.443512 593.074463,372.280426 
	C594.109619,373.696442 595.128601,374.777405 596.423096,376.043640 
	C598.485046,378.134186 600.271423,380.039398 602.076294,382.284149 
	C603.428406,384.053955 604.762085,385.484253 606.253174,387.200653 
	C608.294373,389.305603 610.178101,391.124451 612.076538,393.269104 
	C612.753540,394.374390 613.415894,395.153870 614.214233,396.188446 
	C614.919250,396.945984 615.488220,397.448456 616.022827,398.347137 
	C614.974854,402.983826 611.484680,401.968048 608.705383,401.972046 
	C568.516785,402.030090 528.328125,401.996155 488.139557,402.058777 
	C486.091400,402.061981 484.044250,402.739044 481.622192,403.099854 
	C480.499359,403.120361 479.750977,403.143402 478.797455,402.890747 
	C477.393738,402.782928 476.195129,402.950806 474.664490,403.116516 
	C473.889740,403.115265 473.447021,403.116119 472.722687,402.819946 
	C466.834290,402.353088 461.227722,402.044495 455.620697,402.036407 
	C423.865814,401.990540 392.110809,402.017578 360.355865,402.017944 
	C325.088257,402.018341 289.820587,401.979523 254.553192,402.065582 
	C250.367554,402.075775 246.183548,402.763977 241.538513,403.122620 
	C237.386765,403.122986 233.695267,403.138672 229.713287,402.845276 
	C227.634460,402.362823 225.846512,402.043579 224.057724,402.038818 
	C208.515045,401.997620 192.972198,402.010223 177.429413,402.013641 
	C174.704269,402.014252 171.824509,402.257751 172.374191,397.979797 
	C173.106781,397.243195 173.595520,396.660248 174.414780,396.013428 
	C175.451569,394.931000 176.157852,393.912384 176.986237,392.646820 
	C177.343048,391.907043 177.577759,391.414215 178.128357,390.780060 
	C180.961441,386.581696 183.404892,382.476624 186.010834,378.477417 
	C191.798431,369.595551 197.766098,360.829834 203.481216,351.902069 
	C213.193649,336.730042 222.781036,321.477844 232.396011,306.243591 
	C239.611954,294.810394 246.788773,283.352509 254.219177,271.747986 
	C254.628326,271.058594 254.801331,270.526886 255.283249,269.834747 
	C257.411255,266.131897 259.230347,262.589508 261.374084,258.971680 
	C262.782928,257.257172 263.867157,255.618057 265.182678,253.807419 
	C265.358826,252.515030 265.303680,251.394150 265.445312,250.219269 
	C265.642090,250.165268 266.040710,250.077728 266.400696,250.059998 
	C269.317902,246.975098 272.062531,244.038345 274.335266,240.773163 
	C275.181122,239.557907 274.923065,237.574295 275.167847,235.756805 
	C275.167267,235.572525 275.216919,235.206055 275.544617,235.165298 
	C276.312500,233.847809 276.752686,232.571091 277.408936,231.054962 
	C277.769135,230.206131 277.913208,229.596710 278.057251,228.987274 
z"/>
<path fill="#47BFD6" opacity="1.000000" stroke="none" 
	d="
M616.057190,397.950897 
	C615.488220,397.448456 614.919250,396.945984 614.195679,395.846924 
	C613.381348,394.481323 612.721619,393.712311 612.061890,392.943268 
	C610.178101,391.124451 608.294373,389.305603 606.233398,386.844971 
	C604.723450,384.783630 603.390625,383.364105 602.057861,381.944611 
	C600.271423,380.039398 598.485046,378.134186 596.385498,375.696533 
	C595.067627,374.091217 594.062927,373.018280 593.058167,371.945343 
	C592.489014,371.443512 591.919861,370.941681 591.202026,369.827759 
	C590.059387,368.122314 589.065552,367.028931 588.071655,365.935547 
	C586.849609,364.778473 585.627625,363.621368 584.231934,361.833008 
	C583.055786,360.118225 582.053223,359.034729 581.050659,357.951233 
	C580.477478,357.449402 579.904236,356.947571 579.136719,355.882202 
	C578.320862,354.856018 577.699219,354.393402 577.077637,353.930756 
	C576.784302,353.790771 576.535706,353.594208 576.188477,352.780518 
	C574.711426,350.798950 573.377747,349.377869 572.044067,347.956787 
	C570.828857,346.794830 569.613586,345.632874 568.226074,343.836365 
	C565.427917,340.419708 562.802002,337.637604 560.176086,334.855499 
	C558.588196,333.061432 557.000305,331.267365 555.234375,328.850525 
	C554.389832,327.468048 553.723450,326.708313 553.057068,325.948578 
	C549.499268,322.137665 545.941467,318.326752 542.175537,313.892334 
	C541.018860,312.487091 540.070312,311.705322 539.121704,310.923553 
	C539.121704,310.923553 539.072449,310.964600 539.063354,310.593109 
	C538.393494,309.460602 537.732727,308.699615 537.071899,307.938599 
	C536.778931,307.796356 536.532410,307.596802 536.190552,306.778625 
	C534.716064,304.795471 533.383362,303.373566 532.050598,301.951660 
	C530.499817,300.464142 528.949097,298.976654 527.226074,296.851562 
	C526.056396,295.123657 525.058899,294.033386 524.061462,292.943085 
	C520.168274,288.797729 516.275024,284.652405 512.122314,279.857849 
	C510.237762,278.809418 508.612732,278.410217 506.765625,277.866455 
	C506.346863,277.431427 506.150177,277.140930 505.953491,276.850464 
	C508.569366,272.240448 511.337769,274.089539 513.813416,276.851471 
	C522.128967,286.128387 530.360840,295.480743 538.586060,304.838196 
	C557.012695,325.801453 575.462524,346.744690 593.811279,367.775970 
	C604.510315,380.039185 615.032532,392.456635 625.820801,405.108215 
	C621.563477,405.799255 617.119812,406.523163 612.675842,406.525696 
	C466.224365,406.608948 319.772858,406.627045 173.321381,406.610840 
	C171.027328,406.610565 168.733353,406.062317 166.167206,405.501129 
	C166.678345,403.605133 167.461639,401.977814 168.800629,400.075317 
	C169.887802,399.538666 170.419281,399.277191 170.959534,399.427032 
	C170.748825,403.186676 172.618912,404.059631 175.602295,404.050232 
	C192.649490,403.996613 209.697006,404.042023 226.744217,403.989929 
	C227.831573,403.986603 228.917297,403.445374 230.003784,403.154358 
	C233.695267,403.138672 237.386765,403.122986 241.863480,403.373962 
	C243.961197,403.772827 245.273666,404.020386 246.586182,404.020691 
	C320.474213,404.038147 394.362244,404.040710 468.250244,403.995636 
	C469.835114,403.994659 471.419617,403.422607 473.004303,403.116974 
	C473.447021,403.116119 473.889740,403.115265 474.893494,403.342407 
	C476.637238,403.435760 477.819916,403.301117 479.002594,403.166443 
	C479.750977,403.143402 480.499359,403.120361 481.942871,403.359619 
	C498.064575,403.758789 513.490967,403.980255 528.917725,404.014069 
	C557.153687,404.075928 585.390015,404.061157 613.625671,403.939545 
	C615.336548,403.932190 617.042236,402.708282 618.750305,402.050415 
	C617.852600,400.683929 616.954895,399.317413 616.057190,397.950897 
z"/>
<path fill="#35B4D4" opacity="1.000000" stroke="none" 
	d="
M497.531250,189.523956 
	C477.629639,158.541794 485.506256,122.576729 508.641815,100.744095 
	C529.267151,81.280365 553.968262,75.912827 580.789490,85.602936 
	C607.528503,95.263374 622.851379,114.836578 626.969788,143.118149 
	C631.491516,174.169449 612.435120,204.234116 588.475891,215.372528 
	C560.836304,228.221878 531.036926,223.924240 508.722717,203.324539 
	C504.501495,199.427673 501.360962,194.360138 497.531250,189.523956 
M601.704529,202.949539 
	C602.481140,201.969437 603.257812,200.989349 604.364258,199.436127 
	C606.576599,196.966965 608.788879,194.497803 611.710449,191.932251 
	C612.484436,190.620132 613.258423,189.308014 614.077454,187.549957 
	C614.077454,187.549957 614.101929,187.102417 614.785583,186.953979 
	C615.821411,185.727341 617.194336,184.656128 617.842407,183.250656 
	C627.284912,162.773376 627.874512,142.145172 618.173279,121.616653 
	C616.496033,118.067513 613.463013,115.159012 611.016968,111.995392 
	C611.016968,111.995392 611.046997,111.956223 611.036987,111.232018 
	C606.871094,104.468224 602.038513,98.445190 593.635498,95.699013 
	C593.375427,95.510109 593.175476,95.270950 592.900696,94.306473 
	C590.266846,93.155060 587.633057,92.003639 584.379211,90.813263 
	C583.614014,90.510750 582.848755,90.208237 581.878174,89.224625 
	C575.420715,87.473175 569.055908,84.837982 562.487061,84.149246 
	C547.564453,82.584656 533.338074,85.754692 520.895935,94.334709 
	C516.007263,97.705910 512.237976,102.700439 508.000000,106.999695 
	C508.000000,106.999695 507.955597,106.959137 507.285217,107.049149 
	C506.513641,108.029655 505.742065,109.010162 504.671692,110.596710 
	C503.068573,113.031677 501.465424,115.466637 499.184326,118.060936 
	C497.630493,120.676811 495.857025,123.188538 494.558899,125.925682 
	C486.822205,142.238693 487.125580,158.833344 493.257874,175.507584 
	C494.112122,177.830383 495.701599,179.882751 497.275574,182.617325 
	C498.188171,184.077606 499.100769,185.537888 500.013367,187.693497 
	C500.667114,188.470383 501.320862,189.247253 502.416809,190.394287 
	C502.607513,190.929504 502.798218,191.464722 502.988800,192.690735 
	C503.991333,193.520752 504.993866,194.350769 506.495148,195.567200 
	C508.313873,197.721130 510.132599,199.875046 512.059204,202.728287 
	C513.348816,203.507812 514.638428,204.287354 515.999329,205.051498 
	C515.999329,205.051498 515.936462,205.090866 516.056519,205.778992 
	C517.350769,206.539474 518.645020,207.299957 520.001831,208.040146 
	C520.001831,208.040146 519.944092,208.078461 520.094360,208.740158 
	C521.051331,209.173660 522.008240,209.607147 522.995117,210.007309 
	C522.995117,210.007309 522.961609,210.046173 523.098999,210.725708 
	C530.048462,213.488251 536.904297,216.534897 543.994568,218.869858 
	C546.730835,219.770966 549.999146,219.056320 553.676208,219.080994 
	C554.110229,219.088593 554.544312,219.096176 555.622620,219.616714 
	C567.839478,221.603119 578.762878,217.257767 589.554199,212.511292 
	C590.685486,212.013718 591.268066,210.268814 592.546570,209.078766 
	C592.546570,209.078766 592.985535,209.027481 593.713745,209.023865 
	C594.826050,208.039139 595.938293,207.054398 596.998596,206.032562 
	C596.998596,206.032562 597.055115,206.053024 597.772705,206.043549 
	C598.857605,205.039001 599.942505,204.034439 601.000000,203.000000 
	C601.000000,203.000000 601.029663,203.027527 601.704529,202.949539 
z"/>
<path fill="#30BEE0" opacity="1.000000" stroke="none" 
	d="
M382.076019,245.956955 
	C380.506226,243.480759 378.936462,241.004547 377.191284,237.891327 
	C376.372162,236.488998 375.728455,235.723694 375.084717,234.958389 
	C375.084717,234.958389 375.042786,234.971405 375.030426,234.610168 
	C374.365967,233.486572 373.713867,232.724213 373.061768,231.961853 
	C368.033569,226.829483 365.094391,220.397629 361.448578,214.326447 
	C353.351105,200.842102 344.123718,188.037109 335.385590,174.936096 
	C333.306702,171.819290 331.306091,168.648682 329.331360,165.464447 
	C327.167633,161.975449 325.002869,162.185364 322.953400,165.471100 
	C317.252563,174.610687 311.613617,183.788879 305.950897,192.952255 
	C304.642731,195.069183 303.414703,197.240387 302.016968,199.296326 
	C296.826080,206.931595 291.690247,214.609329 286.269501,222.079361 
	C285.055054,223.752899 282.769867,224.649429 281.136597,225.371857 
	C281.499023,224.166809 281.702545,223.493607 281.906067,222.820404 
	C281.906067,222.820404 282.038330,222.365692 282.491180,222.098694 
	C284.942993,218.517288 286.941925,215.202881 288.940857,211.888474 
	C288.990112,211.725952 289.039368,211.563416 289.564941,211.136322 
	C291.292450,208.748077 292.543671,206.624374 293.794861,204.500671 
	C293.922119,204.139893 294.049377,203.779114 294.629517,203.113068 
	C295.361694,202.165543 295.640961,201.523331 295.920227,200.881119 
	C295.968719,200.716995 296.017151,200.552872 296.523163,200.105164 
	C297.640930,198.536728 298.301117,197.251892 298.961304,195.967056 
	C299.017059,195.789841 299.072784,195.612625 299.567261,195.134155 
	C300.321747,194.197678 300.637512,193.562485 300.953247,192.927277 
	C301.013672,192.756317 301.074097,192.585358 301.592529,192.109238 
	C303.072754,190.015381 304.095062,188.226685 305.117371,186.438004 
	C305.117371,186.438004 305.152924,186.203125 305.538513,186.035828 
	C306.250854,185.178360 306.577606,184.488205 306.904358,183.798050 
	C306.904358,183.798050 307.053314,183.353058 307.495117,183.095428 
	C308.259491,182.162918 308.582031,181.488037 308.904541,180.813171 
	C308.904541,180.813156 309.034912,180.362213 309.475769,180.099060 
	C310.240814,179.148590 310.564972,178.461273 310.889099,177.773926 
	C311.913177,176.017029 312.937256,174.260117 314.481018,172.163010 
	C315.300873,171.139893 315.600983,170.456955 315.901093,169.774017 
	C316.925781,168.021072 317.950470,166.268127 319.485962,164.172073 
	C320.302917,163.157501 320.608978,162.486023 320.915070,161.814560 
	C321.298035,161.032120 321.681030,160.249695 322.562073,159.146210 
	C323.362274,158.188644 323.664368,157.552124 323.966492,156.915619 
	C326.103851,151.951920 328.024750,154.518631 329.720215,157.171570 
	C335.801208,166.686600 341.753845,176.283813 347.847900,185.790390 
	C365.232086,212.909348 382.661987,239.998978 400.051849,267.531494 
	C400.029816,267.962799 399.825806,268.149750 399.473572,268.105011 
	C398.403961,268.055115 397.686554,268.049927 396.969147,268.044769 
	C396.969147,268.044769 396.997131,268.011627 396.943726,267.705048 
	C396.281860,266.917969 395.673340,266.437439 395.064850,265.956940 
	C391.491638,260.491730 387.918396,255.026505 384.174316,248.919708 
	C383.360962,247.504395 382.718506,246.730667 382.076019,245.956955 
z"/>
<path fill="#2AC1E2" opacity="1.000000" stroke="none" 
	d="
M253.983032,271.905640 
	C246.788773,283.352509 239.611954,294.810394 232.396011,306.243591 
	C222.781036,321.477844 213.193649,336.730042 203.481216,351.902069 
	C197.766098,360.829834 191.798431,369.595551 186.010834,378.477417 
	C183.404892,382.476624 180.961441,386.581696 177.935516,390.551819 
	C178.053162,388.798462 178.560577,387.074615 179.331299,385.477875 
	C180.827301,382.378632 182.471252,379.350769 184.053909,376.293335 
	C184.053909,376.293335 184.110306,376.073547 184.457047,375.848358 
	C185.171326,374.711761 185.538849,373.800385 185.906372,372.888977 
	C185.961594,372.725037 186.016830,372.561066 186.530014,372.108765 
	C190.921112,365.399689 194.854233,358.978912 198.787354,352.558136 
	C199.439880,351.547699 200.092407,350.537262 201.227509,349.210510 
	C204.790131,343.923615 207.870148,338.953003 210.950180,333.982422 
	C211.004517,333.803497 211.058868,333.624542 211.551819,333.138428 
	C212.297180,332.182648 212.603958,331.534027 212.910721,330.885376 
	C212.968262,330.720093 213.025818,330.554810 213.545547,330.102295 
	C214.362671,329.476440 214.800507,329.191711 215.060623,328.791504 
	C226.435654,311.288635 237.809006,293.784546 249.115952,276.237701 
	C249.695755,275.337921 249.690109,274.060913 249.957031,272.959534 
	C250.012787,272.788574 250.068542,272.617645 250.598206,272.226746 
	C252.028320,271.642273 252.984512,271.277832 253.959564,271.161133 
	C253.978409,271.408844 253.983032,271.905640 253.983032,271.905640 
z"/>
<path fill="#0D1A44" opacity="1.000000" stroke="none" 
	d="
M790.026733,126.505035 
	C790.024231,211.668030 790.012878,296.365387 789.763550,381.535339 
	C789.525513,382.007935 789.058289,382.022980 789.058289,382.022980 
	C789.041687,274.216217 789.024658,166.409470 789.017517,58.602718 
	C789.017456,57.806866 789.152161,57.011005 790.017883,56.235195 
	C790.017883,79.503258 790.017883,102.771324 790.026733,126.505035 
z"/>
<path fill="#2BBDD9" opacity="1.000000" stroke="none" 
	d="
M505.634094,276.962646 
	C506.150177,277.140930 506.346863,277.431427 506.766663,278.196381 
	C506.988251,279.110962 506.986786,279.551056 506.985321,279.991180 
	C503.513245,284.212616 500.041138,288.434082 495.968414,292.872192 
	C494.895599,293.699860 494.423431,294.310852 493.951233,294.921875 
	C493.658051,295.172485 493.364868,295.423096 492.676819,296.048462 
	C491.524750,297.246063 490.767548,298.068909 490.010315,298.891785 
	C489.975861,299.101746 489.941376,299.311768 489.603271,299.963287 
	C488.552887,301.191803 487.806122,301.978821 487.059387,302.765839 
	C487.059387,302.765839 486.924011,302.927582 486.618958,303.160797 
	C485.894867,304.204346 485.475830,305.014648 485.056824,305.824951 
	C484.132538,307.016602 483.208252,308.208191 481.799072,309.743286 
	C477.145386,313.612000 472.554321,316.830231 471.960266,322.954102 
	C471.960266,322.954102 471.979645,323.001373 471.617798,323.032867 
	C469.828217,325.037109 468.400513,327.009888 466.972809,328.982666 
	C466.844055,329.284332 466.650452,329.536102 465.872986,329.912903 
	C464.893036,330.715820 464.432068,331.343811 463.971100,331.971802 
	C462.405151,333.777008 460.839233,335.582214 458.766357,337.724335 
	C456.495300,340.025818 454.731201,341.990356 452.967102,343.954926 
	C452.967102,343.954926 453.000305,343.987000 452.613708,343.977966 
	C450.816956,343.639252 449.406830,343.309570 447.955536,342.653290 
	C446.922211,341.202820 445.929993,340.078918 444.937805,338.955048 
	C444.759308,338.455872 444.580811,337.956696 444.203308,336.906952 
	C444.006195,335.870575 444.008118,335.384766 444.010010,334.898956 
	C450.912506,341.705872 451.184814,341.936279 457.894562,334.007202 
	C469.678192,320.082184 481.059570,305.817444 492.677368,291.751099 
	C496.787628,286.774597 501.096497,281.962158 505.634094,276.962646 
z"/>
<path fill="#0A1135" opacity="1.000000" stroke="none" 
	d="
M789.043213,382.489166 
	C789.058289,382.022980 789.525513,382.007935 789.759155,382.003967 
	C789.999451,389.384338 790.006165,396.768646 790.014771,404.628418 
	C771.234192,405.200256 752.451721,405.354645 733.669128,405.380463 
	C698.413391,405.428925 663.157471,405.403046 627.449829,405.286530 
	C629.032471,404.775085 631.066711,404.047089 633.101685,404.044769 
	C682.915833,403.987915 732.729980,404.009033 782.544189,404.013519 
	C789.024658,404.014099 789.020813,404.007324 789.017395,397.449402 
	C789.014893,392.618042 789.024109,387.786713 789.043213,382.489166 
z"/>
<path fill="#35B4D4" opacity="1.000000" stroke="none" 
	d="
M249.655396,273.086731 
	C249.690109,274.060913 249.695755,275.337921 249.115952,276.237701 
	C237.809006,293.784546 226.435654,311.288635 215.060623,328.791504 
	C214.800507,329.191711 214.362671,329.476440 213.713303,329.900330 
	C216.758102,324.279602 219.908768,318.452698 223.474182,312.891754 
	C231.996735,299.599152 240.714722,286.431854 249.655396,273.086731 
z"/>
<path fill="#2BBDD9" opacity="1.000000" stroke="none" 
	d="
M414.946381,294.960419 
	C414.781647,294.142975 414.616913,293.325500 414.190002,291.920105 
	C412.618317,289.881073 411.308807,288.430023 409.999329,286.978973 
	C409.023285,285.880768 408.047211,284.782562 407.251709,283.141083 
	C407.347015,281.291321 407.261780,279.984802 407.176544,278.678314 
	C412.254852,286.245605 417.333191,293.812897 422.075317,301.696136 
	C420.865051,301.998383 419.990997,301.984680 419.116943,301.970947 
	C418.845062,301.779724 418.573151,301.588470 418.155121,300.808350 
	C416.988129,298.466400 415.967255,296.713409 414.946381,294.960419 
z"/>
<path fill="#35B4D4" opacity="1.000000" stroke="none" 
	d="
M183.763458,376.416870 
	C182.471252,379.350769 180.827301,382.378632 179.331299,385.477875 
	C178.560577,387.074615 178.053162,388.798462 177.619629,390.693176 
	C177.577759,391.414215 177.343048,391.907043 176.663727,392.724243 
	C175.507477,394.058167 174.795868,395.067749 174.084259,396.077301 
	C173.595520,396.660248 173.106781,397.243195 172.129272,398.052887 
	C171.410599,398.524994 171.180664,398.770355 170.950745,399.015717 
	C170.419281,399.277191 169.887802,399.538666 169.067535,399.872681 
	C173.676834,392.143616 178.574921,384.342010 183.763458,376.416870 
z"/>
<path fill="#2AC1E2" opacity="1.000000" stroke="none" 
	d="
M275.168396,235.941071 
	C274.923065,237.574295 275.181122,239.557907 274.335266,240.773163 
	C272.062531,244.038345 269.317902,246.975098 266.380371,249.677399 
	C265.960938,248.805008 265.921722,248.297516 265.882538,247.790009 
	C265.882538,247.790009 266.028992,247.344879 266.476318,247.090149 
	C267.240906,246.144867 267.558167,245.454300 267.875427,244.763733 
	C267.875427,244.763733 268.004822,244.332260 268.460449,244.085724 
	C269.591339,242.528152 270.266632,241.217087 270.941925,239.906021 
	C270.998138,239.738968 271.054352,239.571915 271.555969,239.118271 
	C272.304749,238.169205 272.608185,237.506714 272.911621,236.844223 
	C272.911621,236.844223 273.018066,236.388504 273.469421,236.201660 
	C274.336670,235.990219 274.752533,235.965652 275.168396,235.941071 
z"/>
<path fill="#35B4D4" opacity="1.000000" stroke="none" 
	d="
M198.499878,352.743927 
	C194.854233,358.978912 190.921112,365.399689 186.689606,371.904114 
	C190.331619,365.635071 194.272003,359.282410 198.499878,352.743927 
z"/>
<path fill="#35B4D4" opacity="1.000000" stroke="none" 
	d="
M210.650955,334.108551 
	C207.870148,338.953003 204.790131,343.923615 201.367645,348.934052 
	C204.134048,344.060822 207.242889,339.147766 210.650955,334.108551 
z"/>
<path fill="#2BBDD9" opacity="1.000000" stroke="none" 
	d="
M427.032166,313.977448 
	C426.076447,312.532135 425.120728,311.086853 424.194275,309.049561 
	C424.080383,307.363922 423.937164,306.270294 423.884644,305.094971 
	C423.975311,305.013275 424.165070,304.859772 424.165070,304.859772 
	C426.793610,308.618408 429.422150,312.377075 432.051880,316.539551 
	C432.053101,316.943329 431.924957,317.053253 431.686340,316.918915 
	C430.967804,316.520355 430.487915,316.256165 429.822998,315.753113 
	C428.769409,315.001953 427.900787,314.489685 427.032166,313.977448 
z"/>
<path fill="#2BBDD9" opacity="1.000000" stroke="none" 
	d="
M435.985657,326.989899 
	C435.491943,326.430786 434.998199,325.871643 434.276306,324.765869 
	C433.373352,322.788208 432.698639,321.357208 432.017090,319.568207 
	C431.981812,318.491211 431.953400,317.772247 431.924988,317.053253 
	C431.924957,317.053253 432.053101,316.943329 432.116272,316.886719 
	C434.643494,320.348511 437.107574,323.866974 439.258484,327.711060 
	C437.958771,327.687805 436.972198,327.338837 435.985657,326.989899 
M436.502045,325.448761 
	C436.502045,325.448761 436.538391,325.523071 436.502045,325.448761 
z"/>
<path fill="#2BBDD9" opacity="1.000000" stroke="none" 
	d="
M400.134766,267.872650 
	C402.426086,270.964294 404.612427,274.146057 406.437714,277.680786 
	C405.062103,278.015869 404.047546,277.998047 403.033020,277.980194 
	C403.033020,277.980194 403.008209,278.000031 403.010559,277.624023 
	C402.329498,275.491852 401.646057,273.735687 400.861511,271.773895 
	C400.576813,271.314667 400.342773,271.122528 400.039825,270.634338 
	C399.956177,269.567810 399.890991,268.858765 399.825806,268.149750 
	C399.825806,268.149750 400.029816,267.962799 400.134766,267.872650 
z"/>
<path fill="#819AAF" opacity="1.000000" stroke="none" 
	d="
M778.915955,22.292126 
	C783.508484,25.696241 786.266968,30.381239 786.911926,36.662384 
	C784.295837,32.247124 781.544250,27.448723 778.915955,22.292126 
z"/>
<path fill="#2AC1E2" opacity="1.000000" stroke="none" 
	d="
M261.049438,259.047089 
	C259.230347,262.589508 257.411255,266.131897 255.035950,269.839050 
	C254.479752,270.003754 253.984619,270.010986 253.987305,269.758728 
	C253.994186,269.338379 253.998398,269.170258 254.201508,268.859375 
	C254.314346,268.189178 254.228302,267.661743 254.081360,267.068573 
	C254.020477,267.002869 253.866821,266.910797 253.866821,266.910797 
	C253.920029,266.745361 253.973251,266.579956 254.501434,266.118652 
	C255.915863,264.060516 256.855347,262.298187 257.794830,260.535889 
	C257.916351,260.176819 258.037872,259.817749 258.597198,259.247925 
	C259.353699,259.019257 259.672546,259.004791 260.239441,258.994415 
	C260.487335,258.995117 260.983002,258.983063 260.999451,258.999146 
	C261.015869,259.015259 261.049438,259.047089 261.049438,259.047089 
z"/>
<path fill="#819AAF" opacity="1.000000" stroke="none" 
	d="
M754.066895,5.151754 
	C759.573669,4.882436 763.777222,7.955165 767.959473,11.642348 
	C763.433594,9.820698 758.799316,7.661179 754.066895,5.151754 
z"/>
<path fill="#35B4D4" opacity="1.000000" stroke="none" 
	d="
M288.644135,212.032349 
	C286.941925,215.202881 284.942993,218.517288 282.641235,221.915527 
	C284.341431,218.724991 286.344421,215.450607 288.644135,212.032349 
z"/>
<path fill="#22D1EC" opacity="1.000000" stroke="none" 
	d="
M403.059998,278.324768 
	C404.047546,277.998047 405.062103,278.015869 406.456177,278.032654 
	C406.835724,278.031616 407.096741,278.308380 407.136658,278.493347 
	C407.261780,279.984802 407.347015,281.291321 407.193817,282.821350 
	C405.665924,281.586365 404.376434,280.127869 403.059998,278.324768 
z"/>
<path fill="#30BEE0" opacity="1.000000" stroke="none" 
	d="
M443.930176,334.721069 
	C444.008118,335.384766 444.006195,335.870575 444.009979,336.721802 
	C442.397675,335.619781 440.779724,334.152405 439.200653,332.137299 
	C439.434723,331.324097 439.682098,331.122681 440.249847,330.992401 
	C440.874237,331.009399 441.230438,331.019379 441.586670,331.029327 
	C441.768707,331.324432 441.950775,331.619568 442.207336,332.513062 
	C442.598389,333.439178 442.914886,333.766907 443.231354,334.094666 
	C443.503204,334.153809 443.709534,334.303314 443.930176,334.721069 
z"/>
<path fill="#35B4D4" opacity="1.000000" stroke="none" 
	d="
M293.508301,204.686188 
	C292.543671,206.624374 291.292450,208.748077 289.731354,210.943436 
	C290.688232,208.967300 291.954987,206.919510 293.508301,204.686188 
z"/>
<path fill="#2AC1E2" opacity="1.000000" stroke="none" 
	d="
M264.951385,253.978943 
	C263.867157,255.618057 262.782928,257.257172 261.374084,258.971680 
	C261.049438,259.047089 261.015869,259.015259 261.005981,258.669434 
	C260.997772,257.882935 260.999451,257.442291 261.244324,256.767212 
	C261.636963,255.659058 261.786438,254.785324 261.935913,253.911575 
	C261.987091,253.747223 262.038300,253.582886 262.513885,253.220795 
	C263.282318,253.002396 263.626373,252.981735 264.089661,253.170532 
	C264.405365,253.642929 264.652863,253.842575 264.951385,253.978943 
z"/>
<path fill="#30BEE0" opacity="1.000000" stroke="none" 
	d="
M419.124054,302.289093 
	C419.990997,301.984680 420.865051,301.998383 422.062439,302.017914 
	C422.929504,302.747589 423.473206,303.471466 424.090973,304.527557 
	C424.165070,304.859772 423.975311,305.013275 423.540649,305.044037 
	C422.403564,305.049469 421.701202,305.024109 420.998810,304.998779 
	C420.376251,304.201599 419.753723,303.404419 419.124054,302.289093 
z"/>
<path fill="#35B4D4" opacity="1.000000" stroke="none" 
	d="
M254.002594,269.002106 
	C253.998398,269.170258 253.994186,269.338379 253.978775,269.984375 
	C253.967560,270.462311 253.940720,270.913422 253.940720,270.913422 
	C252.984512,271.277832 252.028320,271.642273 250.768463,272.017578 
	C251.406006,270.410522 252.347198,268.792572 253.577606,267.042725 
	C253.866821,266.910797 254.020477,267.002869 254.038940,267.376678 
	C254.039139,268.167694 254.020859,268.584900 254.002594,269.002106 
z"/>
<path fill="#819AAF" opacity="1.000000" stroke="none" 
	d="
M787.020752,37.343971 
	C787.895752,39.359074 788.809937,41.771534 789.676880,44.553635 
	C788.773071,42.529293 787.916565,40.135311 787.020752,37.343971 
z"/>
<path fill="#27D1EF" opacity="1.000000" stroke="none" 
	d="
M439.981689,330.985352 
	C439.682098,331.122681 439.434723,331.324097 439.120392,331.799683 
	C438.023163,330.563080 437.045074,329.116364 436.026337,327.329773 
	C436.972198,327.338837 437.958771,327.687805 439.256714,328.047455 
	C439.679291,328.186218 439.790436,328.314301 439.938782,329.029480 
	C439.977875,330.072784 439.979797,330.529083 439.981689,330.985352 
z"/>
<path fill="#35B4D4" opacity="1.000000" stroke="none" 
	d="
M257.502686,260.708496 
	C256.855347,262.298187 255.915863,264.060516 254.663406,265.914429 
	C255.303787,264.297729 256.257141,262.589386 257.502686,260.708496 
z"/>
<path fill="#35B4D4" opacity="1.000000" stroke="none" 
	d="
M304.824402,186.539795 
	C304.095062,188.226685 303.072754,190.015381 301.767578,191.901093 
	C302.500305,190.212616 303.515900,188.427094 304.824402,186.539795 
z"/>
<path fill="#2AC1E2" opacity="1.000000" stroke="none" 
	d="
M277.192841,231.294357 
	C276.752686,232.571091 276.312500,233.847809 275.457520,234.817749 
	C274.992737,234.278748 274.942810,234.046539 274.892853,233.814346 
	C275.277008,233.042557 275.661163,232.270767 276.460358,231.332336 
	C276.875366,231.165680 277.192841,231.294357 277.192841,231.294357 
z"/>
<path fill="#819AAF" opacity="1.000000" stroke="none" 
	d="
M768.011230,12.284466 
	C769.294373,12.721780 770.580017,13.515023 771.966187,14.636880 
	C770.715759,14.190460 769.364685,13.415428 768.011230,12.284466 
z"/>
<path fill="#35B4D4" opacity="1.000000" stroke="none" 
	d="
M298.675659,196.093689 
	C298.301117,197.251892 297.640930,198.536728 296.685669,199.906525 
	C297.057098,198.734436 297.723572,197.477386 298.675659,196.093689 
z"/>
<path fill="#35B4D4" opacity="1.000000" stroke="none" 
	d="
M270.650146,240.032104 
	C270.266632,241.217087 269.591339,242.528152 268.608643,243.916107 
	C268.986938,242.714752 269.672638,241.436462 270.650146,240.032104 
z"/>
<path fill="#30BEE0" opacity="1.000000" stroke="none" 
	d="
M265.182678,253.807419 
	C264.652863,253.842575 264.405365,253.642929 264.096008,252.820374 
	C263.961700,251.793427 263.940277,251.326050 263.918854,250.858688 
	C263.918854,250.858688 264.080811,250.401550 264.457397,250.268997 
	C264.833984,250.136444 265.248535,250.273285 265.248535,250.273285 
	C265.303680,251.394150 265.358826,252.515030 265.182678,253.807419 
z"/>
<path fill="#35B4D4" opacity="1.000000" stroke="none" 
	d="
M261.647339,254.040558 
	C261.786438,254.785324 261.636963,255.659058 261.013672,256.776672 
	C260.539886,257.020508 260.082184,257.080292 260.040466,257.039795 
	C259.998779,256.999298 259.914825,256.918823 259.914825,256.918823 
	C260.396118,256.002380 260.877441,255.085953 261.647339,254.040558 
z"/>
<path fill="#35B4D4" opacity="1.000000" stroke="none" 
	d="
M279.668884,225.907333 
	C279.634094,226.700256 279.284698,227.589645 278.679260,228.393997 
	C278.733582,227.540573 279.043915,226.772171 279.668884,225.907333 
z"/>
<path fill="#35B4D4" opacity="1.000000" stroke="none" 
	d="
M185.620209,373.021240 
	C185.538849,373.800385 185.171326,374.711761 184.558197,375.796997 
	C184.653091,375.031708 184.993561,374.092590 185.620209,373.021240 
z"/>
<path fill="#35B4D4" opacity="1.000000" stroke="none" 
	d="
M277.408936,231.054962 
	C277.192841,231.294357 276.875366,231.165680 276.711731,231.120605 
	C276.861053,230.426498 277.174072,229.777481 277.772156,229.057861 
	C277.913208,229.596710 277.769135,230.206131 277.408936,231.054962 
z"/>
<path fill="#35B4D4" opacity="1.000000" stroke="none" 
	d="
M320.650208,161.934464 
	C320.608978,162.486023 320.302917,163.157501 319.720978,163.920197 
	C319.758514,163.359070 320.071930,162.706711 320.650208,161.934464 
z"/>
<path fill="#35B4D4" opacity="1.000000" stroke="none" 
	d="
M315.643372,169.907227 
	C315.600983,170.456955 315.300873,171.139893 314.722229,171.915527 
	C314.757660,171.352295 315.071655,170.696365 315.643372,169.907227 
z"/>
<path fill="#35B4D4" opacity="1.000000" stroke="none" 
	d="
M310.626251,177.903717 
	C310.564972,178.461273 310.240814,179.148590 309.625977,179.918732 
	C309.678040,179.345520 310.020691,178.689499 310.626251,177.903717 
z"/>
<path fill="#35B4D4" opacity="1.000000" stroke="none" 
	d="
M308.639801,180.934784 
	C308.582031,181.488037 308.259491,182.162918 307.652557,182.921448 
	C307.703796,182.355545 308.039398,181.705963 308.639801,180.934784 
z"/>
<path fill="#35B4D4" opacity="1.000000" stroke="none" 
	d="
M306.630432,183.921768 
	C306.577606,184.488205 306.250854,185.178360 305.638794,185.972153 
	C305.687836,185.399017 306.022156,184.722260 306.630432,183.921768 
z"/>
<path fill="#819AAF" opacity="1.000000" stroke="none" 
	d="
M772.975769,16.285004 
	C773.705688,16.377907 774.390259,16.828123 775.150146,17.653654 
	C774.460388,17.566753 773.695435,17.104534 772.975769,16.285004 
z"/>
<path fill="#819AAF" opacity="1.000000" stroke="none" 
	d="
M775.963989,19.138969 
	C776.662659,19.259523 777.354431,19.743460 778.058838,20.603416 
	C777.366699,20.487076 776.661926,19.994715 775.963989,19.138969 
z"/>
<path fill="#35B4D4" opacity="1.000000" stroke="none" 
	d="
M300.686768,193.024902 
	C300.637512,193.562485 300.321747,194.197678 299.741882,194.916992 
	C299.791931,194.374924 300.106079,193.748718 300.686768,193.024902 
z"/>
<path fill="#35B4D4" opacity="1.000000" stroke="none" 
	d="
M295.662231,200.991669 
	C295.640961,201.523331 295.361694,202.165543 294.827393,202.901138 
	C294.849670,202.363739 295.126953,201.732971 295.662231,200.991669 
z"/>
<path fill="#35B4D4" opacity="1.000000" stroke="none" 
	d="
M281.626648,222.951752 
	C281.702545,223.493607 281.499023,224.166809 281.040222,225.104858 
	C280.784973,225.369705 280.597931,225.307251 280.508698,225.266647 
	C280.728729,224.511734 281.037964,223.797409 281.626648,222.951752 
z"/>
<path fill="#35B4D4" opacity="1.000000" stroke="none" 
	d="
M274.624054,233.935181 
	C274.942810,234.046539 274.992737,234.278748 275.129822,234.858505 
	C275.216919,235.206055 275.167267,235.572525 275.167847,235.756805 
	C274.752533,235.965652 274.336670,235.990219 273.611511,236.015732 
	C273.653259,235.363113 274.004242,234.709564 274.624054,233.935181 
z"/>
<path fill="#2BBDD9" opacity="1.000000" stroke="none" 
	d="
M440.249847,330.992401 
	C439.979797,330.529083 439.977875,330.072784 440.004944,329.275116 
	C440.547913,329.441132 441.061890,329.948547 441.581238,330.742676 
	C441.230438,331.019379 440.874237,331.009399 440.249847,330.992401 
z"/>
<path fill="#35B4D4" opacity="1.000000" stroke="none" 
	d="
M259.991547,258.993713 
	C259.672546,259.004791 259.353699,259.019257 258.798584,259.042847 
	C258.843658,258.415588 259.125092,257.782654 259.660675,257.034241 
	C259.914825,256.918823 259.998779,256.999298 260.010498,257.356445 
	C260.011963,258.140289 260.001770,258.567017 259.991547,258.993713 
z"/>
<path fill="#35B4D4" opacity="1.000000" stroke="none" 
	d="
M323.700317,157.015045 
	C323.664368,157.552124 323.362274,158.188644 322.803345,158.918945 
	C322.842407,158.379990 323.138275,157.747223 323.700317,157.015045 
z"/>
<path fill="#35B4D4" opacity="1.000000" stroke="none" 
	d="
M263.653931,250.972900 
	C263.940277,251.326050 263.961700,251.793427 263.976746,252.610931 
	C263.626373,252.981735 263.282318,253.002396 262.681946,253.024750 
	C262.746704,252.380005 263.067841,251.733551 263.653931,250.972900 
z"/>
<path fill="#35B4D4" opacity="1.000000" stroke="none" 
	d="
M212.642700,330.985138 
	C212.603958,331.534027 212.297180,332.182648 211.719849,332.913818 
	C211.757751,332.359192 212.066223,331.722046 212.642700,330.985138 
z"/>
<path fill="#35B4D4" opacity="1.000000" stroke="none" 
	d="
M265.445312,250.219269 
	C265.248535,250.273285 264.833984,250.136444 264.621643,250.090591 
	C264.722595,249.374939 265.035858,248.705139 265.615814,247.912674 
	C265.921722,248.297516 265.960938,248.805008 266.020416,249.695129 
	C266.040710,250.077728 265.642090,250.165268 265.445312,250.219269 
z"/>
<path fill="#35B4D4" opacity="1.000000" stroke="none" 
	d="
M267.609680,244.889130 
	C267.558167,245.454300 267.240906,246.144867 266.631866,246.914948 
	C266.674713,246.334488 267.009308,245.674515 267.609680,244.889130 
z"/>
<path fill="#35B4D4" opacity="1.000000" stroke="none" 
	d="
M272.648621,236.959839 
	C272.608185,237.506714 272.304749,238.169205 271.728058,238.917572 
	C271.765045,238.360779 272.075317,237.718109 272.648621,236.959839 
z"/>
<path fill="#819AAF" opacity="1.000000" stroke="none" 
	d="
M777.979370,21.261610 
	C778.332825,21.095158 778.647278,21.260937 779.016724,21.699844 
	C778.694519,21.846594 778.317444,21.720219 777.979370,21.261610 
z"/>
<path fill="#819AAF" opacity="1.000000" stroke="none" 
	d="
M771.990601,15.249855 
	C772.332642,15.098001 772.645630,15.268168 773.015381,15.711179 
	C772.701965,15.846640 772.331726,15.709257 771.990601,15.249855 
z"/>
<path fill="#2BBDD9" opacity="1.000000" stroke="none" 
	d="
M443.145142,333.756500 
	C442.914886,333.766907 442.598389,333.439178 442.186157,332.776672 
	C442.413269,332.767365 442.736084,333.092834 443.145142,333.756500 
z"/>
<path fill="#1F3A5C" opacity="1.000000" stroke="none" 
	d="
M3.272290,748.302734 
	C3.021836,652.003052 3.034248,556.003784 3.063116,459.545776 
	C76.558807,459.057098 150.038055,459.006256 223.517288,459.001404 
	C409.132782,458.989197 594.748291,458.997589 780.363770,458.998260 
	C787.999146,458.998291 788.001892,459.001129 788.002014,466.415436 
	C788.003113,560.889282 788.006348,655.363098 788.000183,749.836975 
	C787.999451,761.274963 785.087585,772.058777 778.211365,781.098877 
	C772.896118,788.086792 766.841797,794.795410 758.164307,798.682373 
	C755.229858,799.985352 752.540039,801.462219 749.690857,801.898682 
	C743.321777,802.874451 736.873596,803.912964 730.457153,803.915833 
	C506.075409,804.015686 281.693573,804.040405 57.311821,803.925110 
	C37.269012,803.914856 22.557737,793.987244 11.617253,777.476624 
	C5.718818,768.575134 4.947055,758.579773 3.272290,748.302734 
M553.500000,591.985352 
	C580.160461,591.983765 606.822021,592.099243 633.480408,591.862732 
	C637.805725,591.824341 642.353149,590.825562 646.391174,589.236755 
	C658.892578,584.317871 666.133850,571.072021 663.838928,558.305054 
	C661.469971,545.125732 649.461304,535.024170 635.924561,535.022522 
	C475.295288,535.003357 314.666016,535.000183 154.036789,535.086670 
	C151.139496,535.088257 148.069656,535.818848 145.374634,536.925720 
	C130.453720,543.053894 126.803093,554.056396 128.222885,568.309204 
	C129.391586,580.041443 143.364227,591.989441 154.782883,591.989868 
	C220.704132,591.992615 286.625397,591.999695 352.546631,591.999084 
	C419.197754,591.998413 485.848877,591.990417 553.500000,591.985352 
M159.546585,693.978027 
	C270.183807,693.978943 380.821045,693.986328 491.458252,693.941162 
	C494.079620,693.940125 496.867432,693.818665 499.294678,692.956726 
	C514.090576,687.702026 520.658020,677.411255 520.045166,662.679077 
	C519.527588,650.237183 506.879944,637.044922 494.493317,637.040771 
	C381.190094,637.002625 267.886810,636.980530 154.583679,637.086304 
	C144.455688,637.095764 136.693863,642.429626 131.696075,650.903381 
	C121.701485,667.849365 132.015396,695.181152 159.546585,693.978027 
z"/>
<path fill="#22D1EC" opacity="1.000000" stroke="none" 
	d="
M472.722687,402.819946 
	C471.419617,403.422607 469.835114,403.994659 468.250244,403.995636 
	C394.362244,404.040710 320.474213,404.038147 246.586182,404.020691 
	C245.273666,404.020386 243.961197,403.772827 242.323761,403.389252 
	C246.183548,402.763977 250.367554,402.075775 254.553192,402.065582 
	C289.820587,401.979523 325.088257,402.018341 360.355865,402.017944 
	C392.110809,402.017578 423.865814,401.990540 455.620697,402.036407 
	C461.227722,402.044495 466.834290,402.353088 472.722687,402.819946 
z"/>
<path fill="#22D1EC" opacity="1.000000" stroke="none" 
	d="
M616.022827,398.347137 
	C616.954895,399.317413 617.852600,400.683929 618.750305,402.050415 
	C617.042236,402.708282 615.336548,403.932190 613.625671,403.939545 
	C585.390015,404.061157 557.153687,404.075928 528.917725,404.014069 
	C513.490967,403.980255 498.064575,403.758789 482.317322,403.362122 
	C484.044250,402.739044 486.091400,402.061981 488.139557,402.058777 
	C528.328125,401.996155 568.516785,402.030090 608.705383,401.972046 
	C611.484680,401.968048 614.974854,402.983826 616.022827,398.347137 
z"/>
<path fill="#22D1EC" opacity="1.000000" stroke="none" 
	d="
M170.959518,399.427032 
	C171.180664,398.770355 171.410599,398.524994 171.885437,398.206543 
	C171.824509,402.257751 174.704269,402.014252 177.429413,402.013641 
	C192.972198,402.010223 208.515045,401.997620 224.057724,402.038818 
	C225.846512,402.043579 227.634460,402.362823 229.713287,402.845306 
	C228.917297,403.445374 227.831573,403.986603 226.744217,403.989929 
	C209.697006,404.042023 192.649490,403.996613 175.602295,404.050232 
	C172.618912,404.059631 170.748825,403.186676 170.959518,399.427032 
z"/>
<path fill="#27D1EF" opacity="1.000000" stroke="none" 
	d="
M472.266785,322.815796 
	C472.554321,316.830231 477.145386,313.612000 481.658325,310.039734 
	C478.859406,314.220947 475.716370,318.449219 472.266785,322.815796 
z"/>
<path fill="#22D1EC" opacity="1.000000" stroke="none" 
	d="
M400.962646,271.979553 
	C401.646057,273.735687 402.329498,275.491852 403.015900,277.610107 
	C401.005493,274.915466 398.992096,271.858673 396.973938,268.423340 
	C397.686554,268.049927 398.403961,268.055115 399.473572,268.105011 
	C399.890991,268.858765 399.956177,269.567810 400.138611,270.841736 
	C400.437622,271.664032 400.673218,271.855011 400.962646,271.979553 
z"/>
<path fill="#22D1EC" opacity="1.000000" stroke="none" 
	d="
M560.159790,335.210205 
	C562.802002,337.637604 565.427917,340.419708 568.073853,343.558685 
	C565.443787,341.131989 562.793640,338.348450 560.159790,335.210205 
z"/>
<path fill="#27D1EF" opacity="1.000000" stroke="none" 
	d="
M453.312134,343.923889 
	C454.731201,341.990356 456.495300,340.025818 458.593536,338.003632 
	C457.170837,339.928284 455.414001,341.910553 453.312134,343.923889 
z"/>
<path fill="#27D1EF" opacity="1.000000" stroke="none" 
	d="
M467.283020,328.849060 
	C468.400513,327.009888 469.828217,325.037109 471.599792,323.013184 
	C470.493469,324.879791 469.043335,326.797607 467.283020,328.849060 
z"/>
<path fill="#22D1EC" opacity="1.000000" stroke="none" 
	d="
M414.735382,295.175842 
	C415.967255,296.713409 416.988129,298.466400 418.022583,300.594452 
	C416.865570,299.110077 415.694977,297.250671 414.735382,295.175842 
z"/>
<path fill="#27D1EF" opacity="1.000000" stroke="none" 
	d="
M432.023895,319.926208 
	C432.698639,321.357208 433.373352,322.788208 434.060181,324.584106 
	C432.716217,323.196533 431.360138,321.444061 430.254517,319.446716 
	C431.011230,319.443329 431.517578,319.684784 432.023895,319.926208 
z"/>
<path fill="#27D1EF" opacity="1.000000" stroke="none" 
	d="
M447.996674,342.979858 
	C449.406830,343.309570 450.816956,343.639252 452.595886,343.967529 
	C450.533630,347.626282 448.463135,345.317383 446.533081,343.267731 
	C447.137054,342.972229 447.566864,342.976044 447.996674,342.979858 
z"/>
<path fill="#30BEE0" opacity="1.000000" stroke="none" 
	d="
M410.031769,287.327179 
	C411.308807,288.430023 412.618317,289.881073 413.978271,291.685974 
	C412.707214,290.584991 411.385712,289.130188 410.031769,287.327179 
z"/>
<path fill="#22D1EC" opacity="1.000000" stroke="none" 
	d="
M572.067993,348.294556 
	C573.377747,349.377869 574.711426,350.798950 576.061401,352.577820 
	C574.749146,351.501160 573.420532,350.066742 572.067993,348.294556 
z"/>
<path fill="#22D1EC" opacity="1.000000" stroke="none" 
	d="
M532.071411,302.290283 
	C533.383362,303.373566 534.716064,304.795471 536.064453,306.575012 
	C534.750732,305.498047 533.421509,304.063507 532.071411,302.290283 
z"/>
<path fill="#22D1EC" opacity="1.000000" stroke="none" 
	d="
M602.076294,382.284149 
	C603.390625,383.364105 604.723450,384.783630 606.075989,386.558838 
	C604.762085,385.484253 603.428406,384.053955 602.076294,382.284149 
z"/>
<path fill="#22D1EC" opacity="1.000000" stroke="none" 
	d="
M421.036407,305.326599 
	C421.701202,305.024109 422.403564,305.049469 423.449951,305.125732 
	C423.937164,306.270294 424.080383,307.363922 424.125977,308.725342 
	C423.043579,307.880219 422.058777,306.767365 421.036407,305.326599 
z"/>
<path fill="#22D1EC" opacity="1.000000" stroke="none" 
	d="
M507.408020,279.993164 
	C506.986786,279.551056 506.988251,279.110962 506.988708,278.340912 
	C508.612732,278.410217 510.237762,278.809418 511.964233,279.563599 
	C510.654022,279.944061 509.242340,279.969604 507.408020,279.993164 
z"/>
<path fill="#30BEE0" opacity="1.000000" stroke="none" 
	d="
M447.955536,342.653259 
	C447.566864,342.976044 447.137054,342.972229 446.386139,342.960815 
	C445.690643,341.866180 445.316223,340.779114 444.939819,339.323547 
	C445.929993,340.078918 446.922211,341.202820 447.955536,342.653259 
z"/>
<path fill="#47BFD6" opacity="1.000000" stroke="none" 
	d="
M490.341705,298.871582 
	C490.767548,298.068909 491.524750,297.246063 492.515594,296.291016 
	C492.057159,297.056335 491.365112,297.953857 490.341705,298.871582 
z"/>
<path fill="#47BFD6" opacity="1.000000" stroke="none" 
	d="
M487.385742,302.783081 
	C487.806122,301.978821 488.552887,301.191803 489.529419,300.273865 
	C489.076782,301.028717 488.394409,301.914520 487.385742,302.783081 
z"/>
<path fill="#22D1EC" opacity="1.000000" stroke="none" 
	d="
M524.077759,293.277344 
	C525.058899,294.033386 526.056396,295.123657 527.071411,296.568115 
	C526.090698,295.818726 525.092407,294.715149 524.077759,293.277344 
z"/>
<path fill="#22D1EC" opacity="1.000000" stroke="none" 
	d="
M581.069580,358.284912 
	C582.053223,359.034729 583.055786,360.118225 584.079590,361.554291 
	C583.096680,360.810760 582.092529,359.714661 581.069580,358.284912 
z"/>
<path fill="#22D1EC" opacity="1.000000" stroke="none" 
	d="
M588.084839,366.270782 
	C589.065552,367.028931 590.059387,368.122314 591.070679,369.569641 
	C590.091431,368.817719 589.094788,367.711884 588.084839,366.270782 
z"/>
<path fill="#22D1EC" opacity="1.000000" stroke="none" 
	d="
M593.074463,372.280426 
	C594.062927,373.018280 595.067627,374.091217 596.109985,375.511230 
	C595.128601,374.777405 594.109619,373.696442 593.074463,372.280426 
z"/>
<path fill="#22D1EC" opacity="1.000000" stroke="none" 
	d="
M478.797455,402.890747 
	C477.819916,403.301117 476.637238,403.435760 475.225555,403.344543 
	C476.195129,402.950806 477.393738,402.782928 478.797455,402.890747 
z"/>
<path fill="#22D1EC" opacity="1.000000" stroke="none" 
	d="
M174.414780,396.013428 
	C174.795868,395.067749 175.507477,394.058167 176.541595,392.971191 
	C176.157852,393.912384 175.451569,394.931000 174.414780,396.013428 
z"/>
<path fill="#22D1EC" opacity="1.000000" stroke="none" 
	d="
M539.126465,311.269287 
	C540.070312,311.705322 541.018860,312.487091 542.018127,313.596863 
	C541.089600,313.154907 540.110413,312.384949 539.126465,311.269287 
z"/>
<path fill="#27D1EF" opacity="1.000000" stroke="none" 
	d="
M427.065430,314.312744 
	C427.900787,314.489685 428.769409,315.001953 429.807556,316.033020 
	C429.956360,316.737457 429.935669,316.923126 429.914948,317.108795 
	C428.976196,316.288544 428.037445,315.468292 427.065430,314.312744 
z"/>
<path fill="#30BEE0" opacity="1.000000" stroke="none" 
	d="
M429.930054,317.420746 
	C429.935669,316.923126 429.956360,316.737457 429.992523,316.271881 
	C430.487915,316.256165 430.967804,316.520355 431.686340,316.918915 
	C431.953400,317.772247 431.981812,318.491211 432.017090,319.568207 
	C431.517578,319.684784 431.011230,319.443329 430.245056,319.092651 
	C429.971832,318.566528 429.958496,318.149628 429.930054,317.420746 
z"/>
<path fill="#22D1EC" opacity="1.000000" stroke="none" 
	d="
M382.084961,246.279633 
	C382.718506,246.730667 383.360962,247.504395 384.017731,248.619095 
	C383.385986,248.174149 382.739929,247.388229 382.084961,246.279633 
z"/>
<path fill="#22D1EC" opacity="1.000000" stroke="none" 
	d="
M612.076538,393.269104 
	C612.721619,393.712311 613.381348,394.481323 614.059692,395.591858 
	C613.415894,395.153870 612.753540,394.374390 612.076538,393.269104 
z"/>
<path fill="#22D1EC" opacity="1.000000" stroke="none" 
	d="
M373.078583,232.283188 
	C373.713867,232.724213 374.365967,233.486572 375.032593,234.588318 
	C374.396576,234.153320 373.746002,233.378922 373.078583,232.283188 
z"/>
<path fill="#22D1EC" opacity="1.000000" stroke="none" 
	d="
M375.094299,235.280396 
	C375.728455,235.723694 376.372162,236.488998 377.033203,237.592529 
	C376.401642,237.154648 375.752747,236.378525 375.094299,235.280396 
z"/>
<path fill="#22D1EC" opacity="1.000000" stroke="none" 
	d="
M537.079895,308.264893 
	C537.732727,308.699615 538.393494,309.460602 539.067383,310.561279 
	C538.416199,310.131042 537.752075,309.361115 537.079895,308.264893 
z"/>
<path fill="#47BFD6" opacity="1.000000" stroke="none" 
	d="
M485.364624,305.773193 
	C485.475830,305.014648 485.894867,304.204346 486.539703,303.230377 
	C486.401154,303.951630 486.036774,304.836548 485.364624,305.773193 
z"/>
<path fill="#22D1EC" opacity="1.000000" stroke="none" 
	d="
M553.071960,326.274414 
	C553.723450,326.708313 554.389832,327.468048 555.078735,328.566467 
	C554.429749,328.136810 553.758301,327.368530 553.071960,326.274414 
z"/>
<path fill="#22D1EC" opacity="1.000000" stroke="none" 
	d="
M494.269623,294.888733 
	C494.423431,294.310852 494.895599,293.699860 495.675293,293.034210 
	C495.517914,293.604950 495.052948,294.230286 494.269623,294.888733 
z"/>
<path fill="#22D1EC" opacity="1.000000" stroke="none" 
	d="
M395.094727,266.273560 
	C395.673340,266.437439 396.281860,266.917969 396.923950,267.712952 
	C396.346588,267.548370 395.735565,267.069275 395.094727,266.273560 
z"/>
<path fill="#22D1EC" opacity="1.000000" stroke="none" 
	d="
M577.105957,354.254517 
	C577.699219,354.393402 578.320862,354.856018 579.002991,355.624512 
	C578.420410,355.479675 577.777344,355.028961 577.105957,354.254517 
z"/>
<path fill="#27D1EF" opacity="1.000000" stroke="none" 
	d="
M464.287628,331.926636 
	C464.432068,331.343811 464.893036,330.715820 465.663818,330.031067 
	C465.517181,330.609985 465.060669,331.245697 464.287628,331.926636 
z"/>
<path fill="#30BEE0" opacity="1.000000" stroke="none" 
	d="
M253.959564,271.161133 
	C253.940720,270.913422 253.967560,270.462311 253.976089,270.236633 
	C253.984619,270.010986 254.479752,270.003754 254.727051,269.999451 
	C254.801331,270.526886 254.628326,271.058594 254.219177,271.747986 
	C253.983032,271.905640 253.978409,271.408844 253.959564,271.161133 
z"/>
<path fill="#00D9FF" opacity="1.000000" stroke="none" 
	d="
M592.985535,209.027496 
	C592.985535,209.027481 592.546570,209.078766 591.958740,209.098923 
	C583.407898,211.973724 575.532349,215.118576 567.444275,217.558685 
	C563.493164,218.750702 559.146179,218.630219 554.978333,219.103790 
	C554.544312,219.096176 554.110229,219.088593 553.067261,218.795715 
	C550.338867,218.183853 548.141785,218.109879 546.113953,217.485886 
	C538.367004,215.101959 530.674438,212.541016 522.961609,210.046173 
	C522.961609,210.046173 522.995117,210.007309 522.846313,209.728241 
	C521.779724,208.992279 520.861938,208.535370 519.944092,208.078461 
	C519.944092,208.078461 520.001831,208.040146 519.842102,207.743988 
	C518.433716,206.662186 517.185120,205.876526 515.936462,205.090866 
	C515.936462,205.090866 515.999329,205.051498 515.834351,204.754181 
	C514.430054,203.647552 513.190674,202.838257 511.951324,202.028976 
	C510.132599,199.875046 508.313873,197.721130 506.125977,195.070679 
	C504.834167,193.716080 503.911560,192.858002 502.988953,191.999939 
	C502.798218,191.464722 502.607513,190.929504 502.172607,189.888153 
	C501.290070,188.587418 500.651703,187.792786 500.013336,186.998169 
	C499.100769,185.537888 498.188171,184.077606 497.120850,181.944672 
	C496.637421,180.172745 496.322754,179.069031 495.977814,177.974854 
	C491.973663,165.274948 489.163879,152.332520 492.317291,139.108658 
	C494.047668,131.852539 497.297546,124.958748 499.862305,117.901596 
	C501.465424,115.466637 503.068573,113.031677 505.161255,110.254189 
	C506.419067,108.927490 507.187347,107.943321 507.955597,106.959137 
	C507.955597,106.959137 508.000000,106.999695 508.326019,106.948929 
	C510.655090,105.206017 512.684448,103.543915 514.656860,101.816757 
	C525.580017,92.251465 538.087219,86.656075 552.758789,85.930534 
	C562.827026,85.432640 572.496277,87.202324 582.083557,89.905731 
	C582.848755,90.208237 583.614014,90.510750 584.884216,91.122780 
	C587.937988,92.615379 590.486755,93.798470 593.035522,94.981552 
	C593.175476,95.270950 593.375427,95.510109 593.975891,96.128479 
	C599.893188,101.690712 605.470093,106.823479 611.046997,111.956230 
	C611.046997,111.956223 611.016968,111.995392 611.060059,112.338150 
	C612.629272,115.600349 614.128784,118.534096 615.686279,121.436745 
	C622.162598,133.507080 624.805298,146.484116 622.348511,159.844849 
	C620.642578,169.122467 616.922302,178.029709 614.101929,187.102417 
	C614.101929,187.102417 614.077454,187.549957 613.755310,187.917908 
	C612.622498,189.533447 611.811829,190.781036 611.001221,192.028625 
	C608.788879,194.497803 606.576599,196.966965 603.858765,199.761261 
	C602.578674,201.066757 601.804138,202.047134 601.029663,203.027512 
	C601.029663,203.027527 601.000000,203.000000 600.682495,203.039154 
	C599.261658,204.069885 598.158386,205.061462 597.055115,206.053040 
	C597.055115,206.053024 596.998596,206.032562 596.690796,206.065186 
	C595.250549,207.074356 594.118042,208.050919 592.985535,209.027496 
z"/>
<path fill="#27D1EF" opacity="1.000000" stroke="none" 
	d="
M614.443726,187.028198 
	C616.922302,178.029709 620.642578,169.122467 622.348511,159.844849 
	C624.805298,146.484116 622.162598,133.507080 615.686279,121.436745 
	C614.128784,118.534096 612.629272,115.600349 611.079712,112.317749 
	C613.463013,115.159012 616.496033,118.067513 618.173279,121.616653 
	C627.874512,142.145172 627.284912,162.773376 617.842407,183.250656 
	C617.194336,184.656128 615.821411,185.727341 614.443726,187.028198 
z"/>
<path fill="#27D1EF" opacity="1.000000" stroke="none" 
	d="
M581.980835,89.565178 
	C572.496277,87.202324 562.827026,85.432640 552.758789,85.930534 
	C538.087219,86.656075 525.580017,92.251465 514.656860,101.816757 
	C512.684448,103.543915 510.655090,105.206017 508.305481,106.926926 
	C512.237976,102.700439 516.007263,97.705910 520.895935,94.334709 
	C533.338074,85.754692 547.564453,82.584656 562.487061,84.149246 
	C569.055908,84.837982 575.420715,87.473175 581.980835,89.565178 
z"/>
<path fill="#27D1EF" opacity="1.000000" stroke="none" 
	d="
M499.523315,117.981262 
	C497.297546,124.958748 494.047668,131.852539 492.317291,139.108658 
	C489.163879,152.332520 491.973663,165.274948 495.977814,177.974854 
	C496.322754,179.069031 496.637421,180.172745 496.958435,181.666168 
	C495.701599,179.882751 494.112122,177.830383 493.257874,175.507584 
	C487.125580,158.833344 486.822205,142.238693 494.558899,125.925682 
	C495.857025,123.188538 497.630493,120.676811 499.523315,117.981262 
z"/>
<path fill="#27D1EF" opacity="1.000000" stroke="none" 
	d="
M555.300476,219.360260 
	C559.146179,218.630219 563.493164,218.750702 567.444275,217.558685 
	C575.532349,215.118576 583.407898,211.973724 591.738037,209.110855 
	C591.268066,210.268814 590.685486,212.013718 589.554199,212.511292 
	C578.762878,217.257767 567.839478,221.603119 555.300476,219.360260 
z"/>
<path fill="#27D1EF" opacity="1.000000" stroke="none" 
	d="
M523.030273,210.385941 
	C530.674438,212.541016 538.367004,215.101959 546.113953,217.485886 
	C548.141785,218.109879 550.338867,218.183853 552.741699,218.794128 
	C549.999146,219.056320 546.730835,219.770966 543.994568,218.869858 
	C536.904297,216.534897 530.048462,213.488251 523.030273,210.385941 
z"/>
<path fill="#27D1EF" opacity="1.000000" stroke="none" 
	d="
M611.041992,111.594131 
	C605.470093,106.823479 599.893188,101.690712 594.179565,96.247284 
	C602.038513,98.445190 606.871094,104.468224 611.041992,111.594131 
z"/>
<path fill="#27D1EF" opacity="1.000000" stroke="none" 
	d="
M592.968140,94.644012 
	C590.486755,93.798470 587.937988,92.615379 585.194214,91.142258 
	C587.633057,92.003639 590.266846,93.155060 592.968140,94.644012 
z"/>
<path fill="#27D1EF" opacity="1.000000" stroke="none" 
	d="
M593.349609,209.025681 
	C594.118042,208.050919 595.250549,207.074356 596.716797,206.083740 
	C595.938293,207.054398 594.826050,208.039139 593.349609,209.025681 
z"/>
<path fill="#27D1EF" opacity="1.000000" stroke="none" 
	d="
M512.005249,202.378632 
	C513.190674,202.838257 514.430054,203.647552 515.798706,204.761871 
	C514.638428,204.287354 513.348816,203.507812 512.005249,202.378632 
z"/>
<path fill="#27D1EF" opacity="1.000000" stroke="none" 
	d="
M515.996460,205.434937 
	C517.185120,205.876526 518.433716,206.662186 519.810791,207.754150 
	C518.645020,207.299957 517.350769,206.539474 515.996460,205.434937 
z"/>
<path fill="#27D1EF" opacity="1.000000" stroke="none" 
	d="
M611.355835,191.980438 
	C611.811829,190.781036 612.622498,189.533447 613.732788,188.140869 
	C613.258423,189.308014 612.484436,190.620132 611.355835,191.980438 
z"/>
<path fill="#22D1EC" opacity="1.000000" stroke="none" 
	d="
M502.988892,192.345337 
	C503.911560,192.858002 504.834167,193.716080 505.876587,194.877472 
	C504.993866,194.350769 503.991333,193.520752 502.988892,192.345337 
z"/>
<path fill="#27D1EF" opacity="1.000000" stroke="none" 
	d="
M597.413940,206.048294 
	C598.158386,205.061462 599.261658,204.069885 600.696167,203.054108 
	C599.942505,204.034439 598.857605,205.039001 597.413940,206.048294 
z"/>
<path fill="#27D1EF" opacity="1.000000" stroke="none" 
	d="
M507.620422,107.004150 
	C507.187347,107.943321 506.419067,108.927490 505.310638,109.951172 
	C505.742065,109.010162 506.513641,108.029655 507.620422,107.004150 
z"/>
<path fill="#27D1EF" opacity="1.000000" stroke="none" 
	d="
M601.367065,202.988525 
	C601.804138,202.047134 602.578674,201.066757 603.693848,200.047821 
	C603.257812,200.989349 602.481140,201.969437 601.367065,202.988525 
z"/>
<path fill="#22D1EC" opacity="1.000000" stroke="none" 
	d="
M500.013367,187.345825 
	C500.651703,187.792786 501.290070,188.587418 501.951538,189.703094 
	C501.320862,189.247253 500.667114,188.470383 500.013367,187.345825 
z"/>
<path fill="#27D1EF" opacity="1.000000" stroke="none" 
	d="
M520.019226,208.409302 
	C520.861938,208.535370 521.779724,208.992279 522.831421,209.744904 
	C522.008240,209.607147 521.051331,209.173660 520.019226,208.409302 
z"/>
<path fill="#27D1EF" opacity="1.000000" stroke="none" 
	d="
M436.520203,325.485901 
	C436.538391,325.523071 436.502045,325.448761 436.520203,325.485901 
z"/>
<path fill="#30BEE0" opacity="1.000000" stroke="none" 
	d="
M400.861511,271.773895 
	C400.673218,271.855011 400.437622,271.664032 400.157043,271.199249 
	C400.342773,271.122528 400.576813,271.314667 400.861511,271.773895 
z"/>
<path fill="#30BEE0" opacity="1.000000" stroke="none" 
	d="
M260.239441,258.994415 
	C260.001770,258.567017 260.011963,258.140289 260.052185,257.396942 
	C260.082184,257.080292 260.539886,257.020508 260.770508,257.011078 
	C260.999451,257.442291 260.997772,257.882935 260.989563,258.653320 
	C260.983002,258.983063 260.487335,258.995117 260.239441,258.994415 
z"/>
<path fill="#30BEE0" opacity="1.000000" stroke="none" 
	d="
M254.201492,268.859375 
	C254.020859,268.584900 254.039139,268.167694 254.099823,267.442383 
	C254.228302,267.661743 254.314346,268.189178 254.201492,268.859375 
z"/>
<path fill="#044A6D" opacity="1.000000" stroke="none" 
	d="
M553.000000,591.985474 
	C485.848877,591.990417 419.197754,591.998413 352.546631,591.999084 
	C286.625397,591.999695 220.704132,591.992615 154.782883,591.989868 
	C143.364227,591.989441 129.391586,580.041443 128.222885,568.309204 
	C126.803093,554.056396 130.453720,543.053894 145.374634,536.925720 
	C148.069656,535.818848 151.139496,535.088257 154.036789,535.086670 
	C314.666016,535.000183 475.295288,535.003357 635.924561,535.022522 
	C649.461304,535.024170 661.469971,545.125732 663.838928,558.305054 
	C666.133850,571.072021 658.892578,584.317871 646.391174,589.236755 
	C642.353149,590.825562 637.805725,591.824341 633.480408,591.862732 
	C606.822021,592.099243 580.160461,591.983765 553.000000,591.985474 
M187.500000,537.224548 
	C177.670471,537.230347 167.840836,537.207947 158.011459,537.248169 
	C139.523743,537.323853 128.660172,549.750977 131.015076,568.086365 
	C132.341248,578.412109 143.928162,589.060669 153.966553,589.061279 
	C314.400696,589.071106 474.834839,589.047058 635.268982,589.108398 
	C645.247925,589.112244 652.852905,584.757629 657.621521,576.553284 
	C662.797852,567.647522 663.019531,557.890747 657.284668,549.003540 
	C651.676880,540.313354 643.011780,537.189758 632.817993,537.193481 
	C484.712006,537.247925 336.605988,537.226685 187.500000,537.224548 
z"/>
<path fill="#054E73" opacity="1.000000" stroke="none" 
	d="
M159.056946,693.978027 
	C132.015396,695.181152 121.701485,667.849365 131.696075,650.903381 
	C136.693863,642.429626 144.455688,637.095764 154.583679,637.086304 
	C267.886810,636.980530 381.190094,637.002625 494.493317,637.040771 
	C506.879944,637.044922 519.527588,650.237183 520.045166,662.679077 
	C520.658020,677.411255 514.090576,687.702026 499.294678,692.956726 
	C496.867432,693.818665 494.079620,693.940125 491.458252,693.941162 
	C380.821045,693.986328 270.183807,693.978943 159.056946,693.978027 
M256.500000,691.012207 
	C334.658569,690.997986 412.817169,690.938354 490.975586,691.034668 
	C499.489655,691.045166 506.348450,687.884216 511.521362,681.548096 
	C518.131348,673.451843 518.962036,664.014587 514.683289,654.735901 
	C510.399353,645.445679 502.876526,640.101013 492.173309,640.101746 
	C452.010834,640.104370 411.848389,640.063599 371.685913,640.063965 
	C299.860016,640.064636 228.034119,640.067261 156.208267,640.110229 
	C144.331390,640.117310 134.452469,648.187866 131.917709,659.237915 
	C128.015518,676.249084 140.351654,691.240295 157.511581,691.046204 
	C190.170334,690.676819 222.836761,690.985535 256.500000,691.012207 
z"/>
<path fill="#2BBDD9" opacity="1.000000" stroke="none" 
	d="
M188.000000,537.224060 
	C336.605988,537.226685 484.712006,537.247925 632.817993,537.193481 
	C643.011780,537.189758 651.676880,540.313354 657.284668,549.003540 
	C663.019531,557.890747 662.797852,567.647522 657.621521,576.553284 
	C652.852905,584.757629 645.247925,589.112244 635.268982,589.108398 
	C474.834839,589.047058 314.400696,589.071106 153.966553,589.061279 
	C143.928162,589.060669 132.341248,578.412109 131.015076,568.086365 
	C128.660172,549.750977 139.523743,537.323853 158.011459,537.248169 
	C167.840836,537.207947 177.670471,537.230347 188.000000,537.224060 
M295.054688,540.143311 
	C291.283173,540.085205 287.511658,539.977112 283.740143,539.976562 
	C242.913437,539.970581 202.086670,539.953369 161.260132,540.038269 
	C157.801208,540.045471 154.276138,540.461609 150.897980,541.211365 
	C139.576065,543.723999 132.056641,554.914429 133.810379,566.293152 
	C135.529053,577.444397 145.688110,586.038696 157.312897,586.043335 
	C212.137466,586.065247 266.962158,586.129944 321.786591,586.039551 
	C403.586914,585.904724 485.386993,585.600769 567.187317,585.484741 
	C589.162659,585.453552 611.138794,586.003967 633.114014,585.965881 
	C643.096924,585.948547 651.171448,581.886536 655.800903,572.520813 
	C660.358459,563.300537 657.901978,551.279358 650.572632,546.292664 
	C645.223633,542.653381 639.603821,540.349670 632.854309,540.831360 
	C626.620667,541.276245 620.327087,541.037476 614.064880,540.888977 
	C605.485535,540.685608 596.910034,540.007812 588.334473,540.034546 
	C577.369263,540.068665 566.406494,540.803833 555.440979,540.852478 
	C547.537598,540.887573 539.631958,540.037292 531.726562,540.024170 
	C481.131958,539.940186 430.537140,539.973267 379.942413,539.978760 
	C351.947296,539.981750 323.952179,540.005737 295.054688,540.143311 
z"/>
<path fill="#05D7FC" opacity="1.000000" stroke="none" 
	d="
M256.000000,691.012451 
	C222.836761,690.985535 190.170334,690.676819 157.511581,691.046204 
	C140.351654,691.240295 128.015518,676.249084 131.917709,659.237915 
	C134.452469,648.187866 144.331390,640.117310 156.208267,640.110229 
	C228.034119,640.067261 299.860016,640.064636 371.685913,640.063965 
	C411.848389,640.063599 452.010834,640.104370 492.173309,640.101746 
	C502.876526,640.101013 510.399353,645.445679 514.683289,654.735901 
	C518.962036,664.014587 518.131348,673.451843 511.521362,681.548096 
	C506.348450,687.884216 499.489655,691.045166 490.975586,691.034668 
	C412.817169,690.938354 334.658569,690.997986 256.000000,691.012451 
z"/>
<path fill="#00D9FF" opacity="1.000000" stroke="none" 
	d="
M295.505859,540.081787 
	C323.952179,540.005737 351.947296,539.981750 379.942413,539.978760 
	C430.537140,539.973267 481.131958,539.940186 531.726562,540.024170 
	C539.631958,540.037292 547.537598,540.887573 555.440979,540.852478 
	C566.406494,540.803833 577.369263,540.068665 588.334473,540.034546 
	C596.910034,540.007812 605.485535,540.685608 614.064880,540.888977 
	C620.327087,541.037476 626.620667,541.276245 632.854309,540.831360 
	C639.603821,540.349670 645.223633,542.653381 650.572632,546.292664 
	C657.901978,551.279358 660.358459,563.300537 655.800903,572.520813 
	C651.171448,581.886536 643.096924,585.948547 633.114014,585.965881 
	C611.138794,586.003967 589.162659,585.453552 567.187317,585.484741 
	C485.386993,585.600769 403.586914,585.904724 321.786591,586.039551 
	C266.962158,586.129944 212.137466,586.065247 157.312897,586.043335 
	C145.688110,586.038696 135.529053,577.444397 133.810379,566.293152 
	C132.056641,554.914429 139.576065,543.723999 150.897980,541.211365 
	C154.276138,540.461609 157.801208,540.045471 161.260132,540.038269 
	C202.086670,539.953369 242.913437,539.970581 283.740143,539.976562 
	C287.511658,539.977112 291.283173,540.085205 295.505859,540.081787 
z"/>
</svg>